<svg width="391" height="393" viewBox="0 0 391 393" fill="none" xmlns="http://www.w3.org/2000/svg">
<path d="M119.163 289.586C119.01 288.848 119.18 288.238 119.53 287.659C119.802 287.209 120.216 286.855 120.732 286.661C121.249 286.467 121.868 286.433 122.552 286.624C123.235 286.815 124.021 287.165 124.8 287.693C125.438 288.124 125.997 288.684 126.486 289.197C126.936 289.773 127.386 290.349 127.617 290.959L125.912 291.798C125.713 291.301 125.475 290.868 125.128 290.452C124.781 290.036 124.324 289.636 123.938 289.284C123.442 288.948 122.978 288.725 122.578 288.726C122.178 288.727 121.81 288.84 121.616 289.162C121.227 289.805 121.49 290.526 122.623 291.293L123.544 291.917L122.734 293.09L119.733 293.596L123.48 296.314L122.515 297.745L116.399 293.333L117.208 292.159L120.538 291.604C119.727 290.964 119.316 290.324 119.163 289.586Z" fill="#5B5B5B"/>
<path d="M102.648 280.644L108.939 273.71L110.688 275.361L105.558 281.004L108.271 283.496L109.616 282.06C110.586 281.092 111.401 280.381 112.063 279.928C112.763 279.41 113.378 279.197 114.056 279.207C114.664 279.17 115.296 279.421 115.912 280.025C116.151 280.279 116.459 280.581 116.729 280.947L115.391 282.206C115.36 282.094 115.221 281.999 115.121 281.84C114.674 281.443 114.212 281.399 113.627 281.724C113.042 282.049 112.304 282.631 111.373 283.535L108.689 286.229L102.648 280.644Z" fill="#5B5B5B"/>
<path d="M93.9645 270.191L102.531 268.722C103.39 268.587 104.135 268.644 104.803 268.83C105.471 269.016 106.093 269.442 106.569 269.95C106.907 270.363 107.276 270.888 107.499 271.494L105.871 272.1C105.71 271.718 105.51 271.4 105.341 271.193C105.172 270.987 104.896 270.797 104.65 270.719C104.405 270.642 104.051 270.581 103.729 270.632L103.622 270.649L101.26 278.366L99.4941 276.43L101.365 271.005L95.6234 272.145L93.9645 270.191Z" fill="#5B5B5B"/>
<path d="M87.5896 260.672L95.4139 255.358L96.904 257.361L94.0606 259.245C94.9133 259.821 95.5459 260.43 95.9586 261.071C96.8618 262.225 97.2219 263.284 97.2199 264.279C97.1468 265.227 96.6796 265.998 95.7402 266.723L93.3047 268.429L91.8146 266.426L94.0622 264.864C94.5869 264.494 94.8595 264.044 94.951 263.562C95.0425 263.08 94.7719 262.535 94.3203 261.958C93.8366 261.269 93.2361 260.772 92.5966 260.34L89.0407 262.739L87.5896 260.672Z" fill="#5B5B5B"/>
<path d="M79.2969 244.908L87.7048 240.609L94.7693 252.612L86.3613 256.91L85.1698 254.825L92.0113 251.356L90.3202 248.475L83.4786 251.943L82.2871 249.858L89.1286 246.389L87.4374 243.508L80.5959 246.976L79.2969 244.908Z" fill="#5B5B5B"/>
<path d="M78.7835 240.803L77.7679 238.568L83.6891 236.541L75.7055 233.986L74.7905 231.911L83.8694 228.869L84.8155 231.056L78.9327 233.019L86.8778 235.638L87.7928 237.713L78.7835 240.803Z" fill="#5B5B5B"/>
<path d="M73.9508 225.933L76.1394 223.26L72.5852 221.828L71.6621 219.112L77.2561 221.394L80.9937 216.788L81.9169 219.504L79.5357 222.499L83.4067 224.057L84.2988 226.661L78.3184 224.205L74.8429 228.537L73.9508 225.933Z" fill="#5B5B5B"/>
<path d="M71.1976 210.159L69.6251 202.012L71.4462 201.9L72.5485 207.731L74.5847 207.586L74.0298 204.758C73.7985 203.512 73.8748 202.567 74.2586 201.923C74.6424 201.28 75.2646 200.891 76.1943 200.802C77.1932 200.762 78.0002 201.043 78.6845 201.693C79.3687 202.343 79.8227 203.379 80.054 204.626L80.9867 209.434L71.1976 210.159ZM78.4021 204.944C78.2865 204.321 78.0557 203.891 77.8174 203.637C77.5098 203.336 77.1947 203.21 76.6952 203.231C75.8731 203.302 75.4892 203.945 75.7589 205.127L76.229 207.443L78.8722 207.26L78.4021 204.944Z" fill="#5B5B5B"/>
<path d="M77.6928 191.277L78.134 195.93L80.3713 196.919L80.5881 199.333L70.2161 194.493L70.0301 192.19L79.543 188.012L79.7598 190.427L77.6928 191.277ZM76.0253 191.947L72.3291 193.403L76.281 195.113L76.0253 191.947Z" fill="#5B5B5B"/>
<path d="M71.3149 177.853C71.5902 177.226 72.0334 176.805 72.5759 176.544C73.1184 176.282 73.7602 176.179 74.4629 176.3C75.1656 176.42 75.7919 176.669 76.3417 177.047C76.8533 177.489 77.2884 178.06 77.5784 178.713C77.8684 179.366 77.9749 180.164 78.005 181.091L77.9888 183.074L80.7692 183.444L80.7375 185.78L70.8151 184.399L70.8631 180.08C70.8635 179.265 71.0395 178.479 71.3149 177.853ZM75.7447 179.356C75.4776 178.991 75.0652 178.708 74.4999 178.682C73.9729 178.592 73.5068 178.725 73.2087 179.064C72.9106 179.403 72.7118 179.901 72.7878 180.587L72.7411 182.459L76.1555 182.902L76.2023 181.031C76.1644 180.279 76.0119 179.721 75.7447 179.356Z" fill="#5B5B5B"/>
<path d="M72.5579 172.456L73.3994 164.512L75.1949 164.928L74.5598 170.565L76.6009 171.059L76.8609 168.336C76.9833 167.151 77.3053 166.284 77.8959 165.783C78.4865 165.282 79.2384 165.163 80.1899 165.362C81.2104 165.609 81.9011 166.082 82.3617 166.942C82.8607 167.737 82.9914 168.824 82.8307 170.074L82.3104 174.702L72.5579 172.456ZM81.2731 169.912C81.3343 169.319 81.3188 168.856 81.0502 168.49C80.8889 168.107 80.5436 167.871 80.0832 167.827C79.2392 167.611 78.7176 168.159 78.5952 169.344L78.3197 171.603L80.9593 172.235L81.2731 169.912Z" fill="#5B5B5B"/>
<path d="M84.8998 155.681L86.6843 156.272L85.1217 163.629L75.3953 160.397L76.8813 153.169L78.6657 153.759L77.6317 158.76L79.7301 159.475L80.634 155.019L82.4184 155.61L81.5146 160.065L83.7892 160.811L84.8998 155.681Z" fill="#5B5B5B"/>
<path d="M81.5378 143.599C82.02 143.115 82.5632 142.853 83.2059 142.751C83.8486 142.648 84.4837 142.722 85.1798 143.019C85.876 143.315 86.3885 143.758 86.8628 144.265C87.2987 144.836 87.5205 145.442 87.5968 146.129C87.6732 146.816 87.6042 147.584 87.3209 148.387L86.7085 150.233L89.3172 151.39L88.6205 153.54L79.1572 149.398L80.4281 145.466C80.6731 144.728 81.0557 144.084 81.5378 143.599ZM85.5005 146.23C85.3093 145.736 85.0033 145.436 84.4449 145.233C83.9246 144.967 83.4273 144.988 83.0294 145.168C82.6316 145.348 82.3637 145.798 82.157 146.472L81.621 148.189L84.9259 149.643L85.4618 147.926C85.6686 147.252 85.6228 146.677 85.5005 146.23Z" fill="#5B5B5B"/>
<path d="M93.7756 136.997L92.0267 141.061L93.6725 142.909L92.7246 144.981L85.201 136.041L86.1104 134.033L97.117 135.198L96.1691 137.27L93.7756 136.997ZM91.8854 136.705L87.7102 136.122L90.6602 139.403L91.8854 136.705Z" fill="#5B5B5B"/>
<path d="M143.543 87.5285C144.175 87.7795 144.76 88.271 145.161 88.908C145.462 89.3858 145.686 89.9922 145.663 90.5206C145.71 91.0964 145.472 91.6586 145.164 92.1732C144.818 92.7523 144.265 93.1889 143.534 93.5949C142.949 93.9198 142.333 94.1328 141.648 94.2984C140.963 94.464 140.394 94.4366 139.755 94.3617L139.483 92.3631C139.945 92.4074 140.407 92.4517 140.946 92.3673C141.485 92.2829 141.954 92.1511 142.393 91.9075C142.831 91.6639 143.201 91.3728 143.323 91.0036C143.446 90.6345 143.461 90.2823 143.191 89.9163C142.76 89.1675 142.013 89.1095 140.92 89.6305L140.043 90.1177L139.21 88.7319L139.662 85.6871L136.084 87.5887L135.051 85.8843L140.891 82.8121L141.723 84.1979L141.295 87.5307C142.127 87.2839 142.912 87.2775 143.543 87.5285Z" fill="#5B5B5B"/>
<path d="M156.114 85.397L154.692 85.9669L155.686 87.9143L153.715 88.7441L152.722 86.7968L147.946 88.7022L147.185 87.1857L148.33 79.5385L150.448 78.6277L149.464 85.8413L151.836 84.8327L150.943 83.0448L152.875 82.2793L153.768 84.0671L155.19 83.4972L156.114 85.397Z" fill="#5B5B5B"/>
<path d="M168.66 75.5542L164.103 76.6403L167.07 84.6265L164.865 85.1293L161.204 75.3149L167.896 73.678L168.66 75.5542Z" fill="#5B5B5B"/>
<path d="M174.771 82.2095C173.89 81.8796 173.017 81.3735 172.368 80.6577C171.718 79.9419 171.254 79.0806 170.936 78.1382C170.618 77.1958 170.694 76.2506 170.909 75.4004C171.124 74.5502 171.655 73.8259 172.287 73.2609C172.919 72.6959 173.829 72.3211 174.802 72.17C175.774 72.0189 176.809 72.0915 177.689 72.4213C178.569 72.7512 179.442 73.2573 180.092 73.9732C180.741 74.689 181.206 75.5503 181.524 76.4927C181.841 77.4351 181.766 78.3803 181.551 79.2305C181.336 80.0806 180.805 80.805 180.172 81.3699C179.54 81.9349 178.63 82.3098 177.658 82.4609C176.686 82.612 175.721 82.5869 174.771 82.2095ZM178.588 79.9243C178.997 79.5691 179.227 79.1832 179.358 78.6378C179.488 78.0925 179.441 77.5164 179.286 76.9571C179.169 76.3335 178.798 75.8078 178.458 75.394C178.048 74.9326 177.631 74.6474 177.067 74.4433C176.503 74.2392 175.97 74.147 175.392 74.2953C174.851 74.3792 174.342 74.5751 173.934 74.9303C173.525 75.2855 173.294 75.6714 173.164 76.2168C173.033 76.7621 173.081 77.3381 173.236 77.8974C173.353 78.521 173.724 79.0467 174.064 79.4606C174.474 79.922 174.891 80.2072 175.455 80.4113C176.019 80.6153 176.551 80.7076 177.13 80.5593C177.67 80.4753 178.179 80.2795 178.588 79.9243Z" fill="#5B5B5B"/>
<path d="M195.077 78.8594L195.738 82.845L193.614 82.9374L193.267 80.8886L186.28 81.2015L186.627 83.2503L184.502 83.3427L183.841 79.3571L184.236 79.3548C184.849 79.3192 185.158 78.8047 185.264 77.971C185.37 77.1372 185.352 75.8555 185.13 74.2546L184.758 71.1005L192.389 70.864L193.774 79.0592L195.077 78.8594ZM187.411 77.3497C187.413 78.1668 187.244 78.7766 187.012 79.1625L191.44 79.0086L190.369 72.7502L186.949 72.8662L187.139 74.3551C187.344 75.4915 187.409 76.5326 187.411 77.3497Z" fill="#5B5B5B"/>
<path d="M204.582 78.9969L199.956 78.6544L199.186 80.7577L196.819 80.5948L200.673 70.8951L202.932 71.0747L208.042 81.4451L205.605 81.2344L204.582 78.9969ZM203.724 77.143L201.874 73.1637L200.604 76.9202L203.724 77.143Z" fill="#5B5B5B"/>
<path d="M217.544 82.3112C216.75 81.6774 216.141 80.898 215.786 80.0206C215.432 79.1431 215.223 78.1844 215.368 77.2869C215.444 76.3419 215.767 75.475 216.328 74.8622C216.889 74.2495 217.589 73.7316 218.42 73.4848C219.252 73.2379 220.252 73.1978 221.276 73.4456C222.3 73.6934 223.209 74.1343 224.002 74.7681C224.796 75.4019 225.335 76.1338 225.759 77.0588C226.114 77.9362 226.323 78.8949 226.247 79.8399C226.171 80.7849 225.848 81.6518 225.287 82.2645C224.726 82.8773 224.026 83.3952 223.195 83.642C222.364 83.8888 221.363 83.9289 220.339 83.6811C219.315 83.4333 218.337 82.945 217.544 82.3112ZM222.069 81.6023C222.577 81.4061 223.015 81.1625 223.284 80.7121C223.553 80.2618 223.753 79.764 223.814 79.1713C223.875 78.5786 223.828 78.0027 223.566 77.4606C223.304 76.9186 223.003 76.4408 222.518 76.1086C222.071 75.7121 221.547 75.4442 220.947 75.305C220.346 75.1658 219.846 75.1859 219.338 75.3821C218.83 75.5783 218.392 75.8219 218.123 76.2722C217.785 76.6751 217.654 77.2204 217.593 77.8131C217.532 78.4058 217.579 78.9817 217.841 79.5238C218.103 80.0659 218.404 80.5436 218.889 80.8758C219.336 81.2723 219.86 81.5402 220.46 81.6794C221.03 81.7068 221.6 81.7342 222.069 81.6023Z" fill="#5B5B5B"/>
<path d="M238.99 78.7089L236.943 88.1887L234.641 87.434L236.328 79.7025L231.902 78.2241L230.216 85.9557L227.914 85.201L229.96 75.7212L238.99 78.7089Z" fill="#5B5B5B"/>
<path d="M252.16 84.5323L254.35 85.5826L251.118 94.6042L248.928 93.5539L252.16 84.5323ZM248.775 87.2849C249.204 88.0325 249.234 88.96 248.943 89.9386C248.614 90.9816 247.948 91.612 247.052 91.8127C246.156 92.0135 245.168 91.8792 243.881 91.268L239.639 89.2621L242.871 80.2405L245.061 81.2908L243.973 84.2607L246.409 85.3886C247.488 85.8579 248.277 86.49 248.775 87.2849ZM245.788 89.8576C246.217 89.7894 246.516 89.4505 246.646 88.9054C247.006 87.9741 246.577 87.2265 245.359 86.6626L243.376 85.7542L242.288 88.7242L244.272 89.6325C244.9 89.8823 245.428 89.9731 245.788 89.8576Z" fill="#5B5B5B"/>
<path d="M263.982 93.4915L261.05 91.7721L257.59 98.6656L255.472 97.4078L258.932 90.5143L256 88.795L256.79 87.1561L264.732 91.917L263.982 93.4915Z" fill="#5B5B5B"/>
<path d="M268.458 103.771L264.49 100.959L262.626 102.128L260.592 100.643L269.461 95.3941L271.426 96.8321L270.217 107.515L268.114 105.982L268.458 103.771ZM268.68 101.929L269.247 97.876L265.956 99.97L268.68 101.929Z" fill="#5B5B5B"/>
<path d="M314.078 155.549L304.875 158.771L303.824 156.523L311.246 153.913L310.293 152.003L311.963 151.407L314.078 155.549Z" fill="#5B5B5B"/>
<path d="M316.328 164.996L318.984 172.978L317.291 173.359L315.392 167.709L313.483 168.124L314.402 170.838C314.78 172.003 314.881 172.979 314.635 173.717C314.39 174.455 313.798 174.956 312.897 175.156C311.997 175.355 311.111 175.202 310.387 174.616C309.663 174.029 309.023 173.138 308.614 171.861L307.032 167.152L316.328 164.996ZM310.068 171.225C310.292 171.831 310.524 172.262 310.87 172.499C311.217 172.736 311.533 172.862 312.002 172.73C312.795 172.547 313.002 171.873 312.662 170.644L311.867 168.377L309.312 168.894L310.068 171.225Z" fill="#5B5B5B"/>
<path d="M312.73 184.754L311.675 180.135L309.414 179.496L308.871 177.13L319.665 180.524L320.177 182.777L311.47 188.334L310.896 185.856L312.73 184.754ZM314.271 183.814L317.608 181.836L313.511 180.666L314.271 183.814Z" fill="#5B5B5B"/>
<path d="M320.8 197.065C320.594 197.739 320.219 198.207 319.776 198.627C319.264 199 318.691 199.151 317.912 199.159C317.202 199.215 316.538 199.03 315.988 198.652C315.4 198.339 314.927 197.832 314.568 197.132C314.171 196.497 313.958 195.715 313.821 194.805L313.555 192.809L310.828 192.839L310.539 190.555L320.346 190.497L320.931 194.889C321.076 195.623 321.007 196.391 320.8 197.065ZM316.272 196.218C316.646 196.566 317.028 196.738 317.593 196.764C318.158 196.79 318.555 196.609 318.785 196.223C319.014 195.837 319.106 195.356 319.03 194.669L318.794 192.785L315.395 192.806L315.631 194.69C315.745 195.312 315.966 195.918 316.272 196.218Z" fill="#5B5B5B"/>
<path d="M310.393 210.604L316.391 211.254L311.409 207.763L311.345 206.722L316.145 204.288L310.255 203.622L310.204 201.412L320.273 202.484L320.3 204.406L314.147 207.457L320.455 211.852L320.482 213.774L310.413 212.702L310.393 210.604Z" fill="#5B5B5B"/>
<path d="M309.824 224.019L307.99 223.668L308.639 216.046L318.539 218.212L317.897 225.658L316.063 225.306L316.499 220.166L314.35 219.69L313.975 224.237L312.18 223.822L312.554 219.274L310.229 218.768L309.824 224.019Z" fill="#5B5B5B"/>
<path d="M314.432 238.177L304.616 234.992L305.068 232.763L309.079 234.059L309.906 229.731L305.895 228.435L306.347 226.206L316.163 229.392L315.711 231.62L311.839 230.419L311.012 234.748L314.884 235.949L314.432 238.177Z" fill="#5B5B5B"/>
<path d="M300.079 245.028C300.782 244.511 301.587 244.154 302.485 244.132C303.384 244.111 304.275 244.266 305.259 244.756C306.244 245.246 306.973 245.835 307.517 246.568C308.131 247.349 308.489 248.228 308.592 249.205C308.733 250.117 308.619 251.127 308.257 252.058C307.895 252.989 307.363 253.714 306.659 254.231C305.955 254.747 305.151 255.105 304.252 255.126C303.316 255.212 302.463 254.993 301.479 254.503C300.494 254.012 299.765 253.424 299.221 252.691C298.607 251.91 298.249 251.031 298.146 250.054C298.005 249.142 298.119 248.132 298.442 247.265C298.842 246.27 299.375 245.545 300.079 245.028ZM300.206 249.737C300.292 250.249 300.556 250.792 300.859 251.271C301.163 251.75 301.721 252.131 302.248 252.4C302.845 252.716 303.38 252.809 303.953 252.838C304.456 252.819 304.967 252.623 305.408 252.38C305.779 252.089 306.119 251.687 306.358 251.125C306.558 250.627 306.619 250.034 306.532 249.522C306.446 249.01 306.181 248.467 305.878 247.988C305.467 247.526 305.017 247.128 304.49 246.859C303.893 246.543 303.358 246.45 302.785 246.421C302.281 246.44 301.771 246.636 301.33 246.879C300.959 247.169 300.619 247.572 300.38 248.134C300.141 248.696 300.119 249.225 300.206 249.737Z" fill="#5B5B5B"/>
<path d="M299.345 267.781L290.367 262.26L291.341 260.3L295.051 262.571L297.03 258.761L293.321 256.49L294.295 254.529L303.273 260.049L302.299 262.01L298.727 259.834L296.748 263.643L300.319 265.82L299.345 267.781Z" fill="#5B5B5B"/>
<path d="M282.168 278.552L283.013 277.491L279.684 274.702L280.989 273.046L284.318 275.835L285.202 274.709L283.178 270.264L284.75 268.335L287.342 274.16L292.994 275.436L291.5 277.237L286.795 276.056L285.911 277.181L289.311 280.018L288.006 281.674L284.606 278.837L283.722 279.963L285.746 284.408L284.252 286.209L281.899 280.817L275.742 279.381L277.313 277.451L282.168 278.552Z" fill="#5B5B5B"/>
<path d="M269.673 287.163L268.283 285.754L273.427 280.678L280.772 288.355L275.705 293.303L274.316 291.894L277.831 288.419L276.205 286.757L273.132 289.812L271.812 288.451L274.884 285.396L273.227 283.622L269.673 287.163Z" fill="#5B5B5B"/>
<path d="M254.649 297.864L252.156 294.525L253.808 293.391L255.085 295.172L260.556 291.397L259.279 289.615L260.93 288.481L263.423 291.82L263.093 292.047C262.616 292.355 262.625 292.995 262.979 293.872C263.333 294.75 264.033 295.864 264.972 297.232L266.849 299.969L260.902 304.052L255.786 297.103L254.649 297.864ZM261.488 295.389C261.096 294.577 260.873 293.97 260.857 293.506L257.407 295.856L261.346 301.184L263.989 299.369L263.081 298.112C262.45 297.046 261.919 296.138 261.488 295.389Z" fill="#5B5B5B"/>
<path d="M255.872 306.488L253.901 307.496L250.296 301.585L249.92 309.576L248.095 310.503L242.661 301.437L244.525 300.446L248.06 306.309L248.505 298.365L250.33 297.439L255.872 306.488Z" fill="#5B5B5B"/>
<path d="M231.027 308.188L229.254 304.438L231.144 303.736L232.066 305.635L238.391 303.251L237.439 301.241L239.329 300.539L241.102 304.289L240.74 304.403C240.23 304.599 240.062 305.209 240.202 306.121C240.342 307.032 240.792 308.246 241.442 309.778L242.782 312.779L235.947 315.358L232.231 307.651L231.027 308.188ZM238.467 307.382C238.25 306.599 238.172 305.911 238.263 305.43L234.229 306.932L237.055 312.852L240.11 311.677L239.49 310.257C239.072 309.155 238.684 308.165 238.467 307.382Z" fill="#5B5B5B"/>
<path d="M220.033 313.158L221.409 312.829L220.032 308.898L222.204 308.387L223.581 312.318L224.957 311.988L225.683 307.499L228.18 306.938L227.147 312.759L231.456 316.878L229.175 317.406L225.665 313.922L224.219 314.203L225.557 318.199L223.385 318.709L222.046 314.714L220.67 315.044L219.944 319.533L217.664 320.06L218.674 314.768L214.095 310.282L216.592 309.721L220.033 313.158Z" fill="#5B5B5B"/>
<path d="M204.631 313.109L204.173 311.255L211.721 310.432L214.052 320.455L206.72 321.244L206.262 319.39L211.402 318.825L210.92 316.683L206.428 317.147L206.04 315.341L210.423 314.893L209.879 312.527L204.631 313.109Z" fill="#5B5B5B"/>
<path d="M201.19 324.532L199.608 324.541C199.528 323.853 199.039 323.519 198.286 323.459C197.891 323.462 197.635 323.559 197.449 323.704C197.264 323.85 197.179 324.155 197.273 324.491L195.691 324.5C195.612 323.811 195.781 323.201 196.191 322.847C196.601 322.492 197.221 322.28 198.19 322.306C199.951 322.328 200.961 323.107 201.19 324.532ZM202.602 321.688L200.337 321.685L199.46 315.105L195.591 321.713L193.435 321.693L192.091 311.623L194.356 311.626L195.233 318.206L199.102 311.598L201.258 311.618L202.602 321.688Z" fill="#5B5B5B"/>
<circle cx="156.54" cy="312.014" r="2.5" transform="rotate(-144.348 156.54 312.014)" fill="#306AFF"/>
<circle cx="110.797" cy="108.14" r="2.5" transform="rotate(-144.348 110.797 108.14)" fill="#306AFF"/>
<circle r="2.5" transform="matrix(-0.812566 -0.58287 0.58286 -0.812573 292.807 125.476)" fill="#306AFF"/>
</svg>
