<svg width="204" height="51" viewBox="0 0 204 51" fill="none" xmlns="http://www.w3.org/2000/svg">
<path d="M71.8277 48.0419C70.4596 46.6116 69.1227 45.1503 67.7235 43.72C67.2571 43.2537 67.1638 43.0049 67.7235 42.4453C69.9932 40.3621 71.2991 37.7503 71.6101 34.641C71.7033 33.5217 71.4857 33.273 70.3664 33.273C66.1378 33.273 61.9403 33.273 57.7117 33.273C57.0588 33.273 56.5924 33.0864 56.126 32.62C45.8033 22.3284 35.4495 12.0679 25.1268 1.77633C22.7327 -0.617793 19.468 -0.586701 17.0739 1.83851C15.8924 3.02002 14.7109 4.23263 13.5294 5.41414C12.6277 6.31582 12.6277 6.50238 13.5604 7.40406C18.5974 12.2545 23.6344 17.136 28.6403 21.9864C31.2831 24.5671 33.9571 27.1167 36.6 29.6663C37.3462 30.3814 37.5638 30.3814 38.31 29.6352C38.8075 29.1377 39.305 28.6091 39.8336 28.1116C40.9529 26.9923 40.9529 26.8679 39.7714 25.7175C32.931 19.0948 26.1218 12.5032 19.2815 5.88053C18.8462 5.47633 18.4109 4.73011 17.7268 5.41414C17.0428 6.09818 17.789 6.53347 18.2243 6.96877C24.9092 13.4671 31.5941 19.9343 38.2789 26.4015C38.7453 26.8679 38.8075 27.1478 38.2789 27.5209C38.1546 27.6142 38.0613 27.7074 37.9991 27.8007C37.6571 28.2982 37.3462 28.2982 36.9109 27.8318C35.1386 26.0595 33.3042 24.3494 31.5008 22.6083C26.0907 17.3847 20.6806 12.1612 15.2705 6.93767C14.8041 6.50238 14.7731 6.25364 15.2394 5.78725C16.2655 4.82338 17.2294 3.79733 18.1932 2.80237C19.9344 1.0612 22.2352 1.03011 23.9764 2.77128C34.4235 13.1562 44.9016 23.541 55.3487 33.957C55.8151 34.4234 56.3126 34.61 56.9655 34.61C59.0176 34.5789 61.0386 34.61 63.0907 34.61C65.2361 34.61 67.3815 34.61 69.5269 34.61C70.0243 34.61 70.2109 34.7032 70.1176 35.2629C69.6201 38.1234 68.1899 40.3932 65.9512 42.1654C65.1739 42.7873 65.1428 43.0982 65.8269 43.8444C67.1638 45.2436 68.4697 46.6427 69.8067 48.0419C70.1176 48.3839 70.1487 48.5394 69.6201 48.6637C67.8479 49.0058 66.3554 48.6016 65.0806 47.3579C64.179 46.4873 63.3084 45.6167 62.4378 44.715C62.0647 44.3419 61.6605 44.1243 61.2252 44.5285C60.7588 44.9637 60.9453 45.399 61.3495 45.8032C62.189 46.6116 62.9974 47.4511 63.8058 48.2595C65.9201 50.3427 68.7806 50.8713 71.4857 49.6587C72.4806 49.2856 72.5739 48.8503 71.8277 48.0419Z" fill="#306AFF"/>
<path d="M58.4888 43.8746C56.8409 43.8746 55.1929 43.8435 53.545 43.8746C52.7988 43.8746 52.4879 43.6259 52.519 42.8486C52.5501 42.0091 52.519 41.1385 52.519 40.299C52.519 38.7755 51.7728 37.9049 50.498 37.936C49.2543 37.936 48.5392 38.8065 48.5392 40.2679C48.5392 41.2007 48.5392 42.1334 48.5392 43.0662C48.5392 43.5326 48.3837 43.8435 47.8862 43.8435C47.4198 43.8435 47.3266 43.4704 47.3266 43.0662C47.3266 42.0713 47.3577 41.0763 47.3266 40.0813C47.2955 38.7444 46.456 37.8738 45.2434 37.9049C44.0929 37.936 43.3156 38.8065 43.2845 40.1124C43.2845 41.0763 43.2845 42.0402 43.2845 43.004C43.2845 43.4393 43.1913 43.8124 42.6938 43.8124C42.2274 43.8124 42.0719 43.4393 42.0719 43.004C42.0719 41.978 42.0719 40.9519 42.0719 39.957C42.0408 38.7444 41.2324 37.9049 40.082 37.9049C38.9316 37.9049 38.1232 38.7444 38.0921 39.9881C38.0921 41.0141 38.0921 42.0402 38.0921 43.0351C38.0921 43.4704 37.9366 43.8124 37.4703 43.8124C37.035 43.8124 36.9106 43.4704 36.9106 43.0662C36.9106 42.0713 36.9106 41.0763 36.9106 40.0813C36.8795 38.7754 36.1022 37.9049 34.9518 37.9049C33.7392 37.8738 32.9308 38.7444 32.8997 40.1124C32.8686 40.9519 32.8997 41.8225 32.8997 42.662C32.8997 43.1284 33.0551 43.7813 32.34 43.8124C31.6249 43.8124 31.7182 43.1906 31.7182 42.6931C31.7182 41.7914 31.7182 40.8897 31.7182 39.957C31.6871 38.7444 30.8787 37.9049 29.7282 37.9049C28.5778 37.9049 27.7694 38.7444 27.7383 39.9881C27.7072 40.983 27.7383 41.978 27.7383 42.9729C27.7383 43.4393 27.645 43.8435 27.1165 43.8435C26.619 43.8435 26.5568 43.4393 26.5568 43.004C26.5568 41.978 26.5568 40.9519 26.5257 39.957C26.4635 38.7133 25.6551 37.9049 24.4736 37.936C23.3543 37.936 22.5148 38.8065 22.5148 40.0502C22.4837 40.9519 22.5148 41.8536 22.5148 42.7864C22.5148 43.7813 22.3904 43.9057 21.3644 43.9057C18.2551 43.9057 15.1459 43.9057 12.0366 43.9057C8.89629 43.9057 5.75595 43.8746 2.61562 43.9368C1.83831 43.9368 1.74503 43.657 1.90049 43.0351C2.02486 42.5065 2.08705 41.9469 2.24251 41.4183C2.36688 40.9519 2.30469 40.5788 1.80721 40.4233C1.30973 40.2679 1.06099 40.6099 0.905532 41.0452C0.563515 42.1023 0.408052 43.1906 0.345867 44.2788C0.314775 44.9939 0.625701 45.2738 1.30973 45.2738C8.15007 45.2738 14.9904 45.2738 21.7997 45.2738C23.1055 45.2738 23.9139 44.4654 23.945 43.1595C23.9761 42.2267 23.945 41.2939 23.945 40.3612C23.945 39.9259 23.8828 39.3662 24.5047 39.3662C25.1576 39.3662 25.1265 39.9259 25.1265 40.3923C25.1265 41.325 25.1265 42.2578 25.1265 43.1906C25.1576 44.4032 25.966 45.2427 27.1476 45.2427C28.298 45.2427 29.1064 44.4343 29.1375 43.1906C29.1686 42.2267 29.1375 41.2628 29.1375 40.299C29.1375 39.8326 29.1686 39.3351 29.7593 39.3351C30.3501 39.3351 30.3812 39.8637 30.3812 40.3301C30.3812 41.2629 30.3812 42.1956 30.3812 43.1284C30.3812 44.4032 31.1585 45.2116 32.3089 45.2427C33.4904 45.2738 34.3299 44.4343 34.361 43.1595C34.3921 42.1334 34.3921 41.1074 34.361 40.1124C34.361 39.7082 34.4854 39.3662 34.9207 39.3351C35.4181 39.304 35.5425 39.646 35.5425 40.1124C35.5425 41.1074 35.5425 42.1023 35.5425 43.0973C35.5736 44.4032 36.3509 45.2427 37.5324 45.2738C38.714 45.2738 39.5224 44.4654 39.5534 43.1284C39.5845 42.1956 39.5534 41.2629 39.5534 40.3301C39.5534 39.8637 39.5534 39.3351 40.1753 39.3662C40.7971 39.3973 40.735 39.9259 40.7661 40.3612C40.7661 41.2939 40.735 42.2267 40.7661 43.1595C40.7971 44.4343 41.5745 45.2427 42.7249 45.2738C43.9064 45.2738 44.7459 44.4343 44.777 43.1595C44.8081 42.1645 44.777 41.1696 44.777 40.1746C44.777 39.7393 44.8703 39.3662 45.3677 39.3662C45.8341 39.3662 45.9896 39.7082 45.9896 40.1746C45.9896 41.2318 45.9585 42.2578 45.9896 43.315C46.0207 44.4654 46.8913 45.2738 48.0106 45.2738C49.1299 45.2738 49.9383 44.4654 49.9694 43.2839C50.0005 42.2578 49.9694 41.2318 49.9694 40.2368C49.9694 39.7704 50.0627 39.3662 50.6224 39.3662C51.1198 39.3662 51.2131 39.7704 51.2131 40.2057C51.2131 41.1696 51.2131 42.1334 51.2131 43.0973C51.2131 44.5586 51.9593 45.2738 53.3896 45.3049C55.1308 45.3049 56.8719 45.3049 58.582 45.3049C59.0795 45.3049 59.6081 45.2738 59.6081 44.6519C59.577 43.8746 59.0173 43.8746 58.4888 43.8746Z" fill="#306AFF"/>
<path d="M4.51117 38.0605C6.00361 38.3092 7.40277 38.7134 8.70865 39.4907C9.39268 39.895 10.0145 40.3613 10.5742 41.1387C10.17 41.1387 9.89016 41.1387 9.61033 41.1387C7.86915 41.1387 6.12798 41.1387 4.41789 41.1387C3.92041 41.1387 3.42293 41.2319 3.42293 41.8538C3.42293 42.4756 3.95151 42.5378 4.44899 42.5378C6.90529 42.5378 9.36159 42.5378 11.8179 42.5378C12.7818 42.5378 13.0305 42.0403 12.533 41.2008C11.4448 39.4597 9.89016 38.247 7.96243 37.5941C7.15403 37.3143 6.31453 37.1588 5.41285 36.9101C7.40277 35.3555 9.54815 34.7025 11.9423 34.7025C24.6591 34.7025 37.407 34.7025 50.1238 34.7025C50.5591 34.7025 51.1188 34.858 51.3364 34.2672C51.5541 33.7076 51.1499 33.3344 50.8078 32.9924C48.2893 30.4428 45.8019 27.8933 43.2835 25.3126C42.8793 24.9084 42.444 24.5664 41.9465 25.0639C41.449 25.5613 41.8221 25.9966 42.2263 26.4008C44.2784 28.5151 46.3616 30.5983 48.4137 32.7126C48.5692 32.8681 48.849 32.9613 48.7868 33.3034C48.4759 33.3034 48.165 33.3034 47.854 33.3034C35.8835 33.3034 23.8818 33.3034 11.9112 33.3034C8.8952 33.3034 6.22126 34.2361 3.9826 36.2571C3.64058 36.5681 3.11201 36.8479 3.29856 37.4697C3.45403 38.0916 4.07588 37.9983 4.51117 38.0605Z" fill="#306AFF"/>
<path d="M12.4712 37.9988C12.4712 39.087 13.3107 39.9265 14.3989 39.9265C15.4561 39.9265 16.3267 39.0248 16.2956 37.9677C16.2645 36.9106 15.3939 36.0711 14.3056 36.1022C13.2796 36.1332 12.4712 36.9417 12.4712 37.9988ZM15.1141 37.9988C15.0208 38.4341 14.8031 38.745 14.3367 38.7139C13.9014 38.6828 13.6216 38.403 13.6527 37.9366C13.6838 37.5324 13.9325 37.2837 14.3367 37.2526C14.8342 37.2837 15.0519 37.5946 15.1141 37.9988Z" fill="#306AFF"/>
<path d="M58.9236 38.7454C58.4572 38.7454 58.2085 39.0563 58.2085 39.4916C58.2085 39.9269 58.5194 40.1756 58.9547 40.2067C59.3589 40.1445 59.6698 39.9269 59.6388 39.4605C59.6388 38.9941 59.39 38.7454 58.9236 38.7454Z" fill="#306AFF"/>
<path d="M78.6122 28.4224V22.9947C78.6122 22.7325 78.6908 22.4965 78.8744 22.313C79.0317 22.1294 79.2677 22.0508 79.5299 22.0508C79.7921 22.0508 80.0281 22.1294 80.2116 22.313C80.3952 22.4965 80.4738 22.7063 80.4738 22.9947V30.1005C81.0507 29.3139 81.7586 28.7108 82.6239 28.2651C83.4892 27.8193 84.4594 27.6096 85.5082 27.6096C86.7406 27.6096 87.8418 27.898 88.8382 28.5011C89.8346 29.0779 90.6212 29.8907 91.1981 30.9134C91.7749 31.936 92.0633 33.0897 92.0633 34.3483C92.0633 35.6069 91.7749 36.7606 91.1718 37.7832C90.595 38.8058 89.7821 39.6186 88.7595 40.2217C87.7369 40.7985 86.5832 41.1132 85.3246 41.1132C84.066 41.1132 82.9123 40.8248 81.8897 40.2217C80.8671 39.6448 80.0543 38.832 79.4774 37.7832C78.9006 36.7606 78.5859 35.6069 78.5859 34.3483V28.6584C78.5859 28.5273 78.5859 28.4748 78.6122 28.4224ZM85.3246 39.3826C86.2424 39.3826 87.0814 39.1729 87.8418 38.7271C88.6022 38.2814 89.1791 37.6783 89.5986 36.9179C90.0181 36.1575 90.2279 35.2922 90.2279 34.3483C90.2279 33.4043 90.0181 32.539 89.5986 31.7786C89.1791 31.0182 88.576 30.4152 87.8418 29.9694C87.1076 29.5237 86.2424 29.3139 85.3246 29.3139C84.0398 29.3139 82.9648 29.7072 82.0733 30.52C81.1818 31.3329 80.6574 32.3555 80.4738 33.6141C80.4738 33.6665 80.4738 33.6927 80.4476 33.7452C80.4214 33.8763 80.4214 34.0861 80.4214 34.3483C80.4214 35.2922 80.6311 36.1575 81.0507 36.9179C81.4702 37.6783 82.0733 38.2814 82.8075 38.7271C83.5679 39.1729 84.4069 39.3826 85.3246 39.3826Z" fill="white"/>
<path d="M104.204 28.475C105.226 29.0519 106.039 29.8647 106.616 30.9135C107.193 31.9361 107.508 33.0898 107.508 34.3484V40.0383C107.508 40.3005 107.429 40.5103 107.245 40.6938C107.062 40.8774 106.852 40.956 106.564 40.956C106.302 40.956 106.066 40.8774 105.882 40.6938C105.698 40.5365 105.62 40.3005 105.62 40.0383V38.5962C105.043 39.3828 104.335 39.9859 103.47 40.4316C102.604 40.8774 101.634 41.0871 100.585 41.0871C99.3531 41.0871 98.2518 40.7987 97.2554 40.1956C96.259 39.6188 95.4724 38.8059 94.8956 37.7833C94.3187 36.7607 94.0303 35.607 94.0303 34.3484C94.0303 33.0898 94.3187 31.9361 94.9218 30.9135C95.4986 29.8909 96.3115 29.0781 97.3341 28.475C98.3567 27.8981 99.5104 27.5835 100.769 27.5835C102.028 27.5835 103.181 27.8981 104.204 28.475ZM103.26 38.7273C103.994 38.2815 104.597 37.6784 105.017 36.918C105.436 36.1576 105.646 35.2924 105.646 34.3484C105.646 33.4045 105.436 32.5392 105.017 31.7788C104.597 31.0184 103.994 30.4153 103.26 29.9696C102.526 29.5238 101.687 29.3141 100.769 29.3141C99.8513 29.3141 99.0122 29.5238 98.2518 29.9696C97.4914 30.4153 96.9145 31.0184 96.495 31.7788C96.0755 32.5392 95.8657 33.4045 95.8657 34.3484C95.8657 35.2924 96.0755 36.1576 96.495 36.918C96.9145 37.6784 97.5176 38.2815 98.2518 38.7273C98.986 39.173 99.8513 39.3828 100.769 39.3828C101.687 39.3828 102.526 39.173 103.26 38.7273Z" fill="white"/>
<path d="M117.76 27.8457C118.154 28.0292 118.363 28.2652 118.363 28.6061C118.363 28.711 118.363 28.7634 118.337 28.8158C118.285 29.0518 118.18 29.1829 118.022 29.2878C117.891 29.3665 117.708 29.4189 117.446 29.4189C117.288 29.4189 117.052 29.3927 116.685 29.3665C116.554 29.3403 116.371 29.3403 116.108 29.3403C114.902 29.3403 113.906 29.6549 113.145 30.3104C112.385 30.9659 111.992 31.805 111.992 32.8276V40.0645C111.992 40.3529 111.913 40.5889 111.756 40.7462C111.598 40.9036 111.362 40.9822 111.074 40.9822C110.786 40.9822 110.55 40.9036 110.392 40.7462C110.235 40.5889 110.156 40.3529 110.156 40.0645V28.6585C110.156 28.3701 110.235 28.1341 110.392 27.9768C110.55 27.8195 110.786 27.7408 111.074 27.7408C111.362 27.7408 111.598 27.8195 111.756 27.9768C111.913 28.1341 111.992 28.3701 111.992 28.6585V29.7336C112.464 29.0518 113.067 28.5274 113.775 28.1603C114.509 27.7932 115.295 27.6097 116.135 27.6097C116.843 27.5572 117.367 27.6621 117.76 27.8457Z" fill="white"/>
<path d="M127.907 27.8457C128.301 28.0292 128.51 28.2652 128.51 28.6061C128.51 28.711 128.51 28.7634 128.484 28.8158C128.432 29.0518 128.327 29.1829 128.169 29.2878C128.038 29.3665 127.855 29.4189 127.593 29.4189C127.435 29.4189 127.199 29.3927 126.832 29.3665C126.701 29.3403 126.518 29.3403 126.255 29.3403C125.049 29.3403 124.053 29.6549 123.292 30.3104C122.532 30.9659 122.139 31.805 122.139 32.8276V40.0645C122.139 40.3529 122.06 40.5889 121.903 40.7462C121.745 40.9036 121.509 40.9822 121.221 40.9822C120.933 40.9822 120.697 40.9036 120.539 40.7462C120.382 40.5889 120.303 40.3529 120.303 40.0645V28.6585C120.303 28.3701 120.382 28.1341 120.539 27.9768C120.697 27.8195 120.933 27.7408 121.221 27.7408C121.509 27.7408 121.745 27.8195 121.903 27.9768C122.06 28.1341 122.139 28.3701 122.139 28.6585V29.7336C122.611 29.0518 123.214 28.5274 123.922 28.1603C124.656 27.7932 125.442 27.6097 126.282 27.6097C126.963 27.5572 127.514 27.6621 127.907 27.8457Z" fill="white"/>
<path d="M138.92 28.475C139.943 29.0519 140.756 29.8647 141.332 30.9135C141.909 31.9361 142.224 33.0898 142.224 34.3484V40.0383C142.224 40.3005 142.145 40.5103 141.962 40.6938C141.778 40.8774 141.568 40.956 141.28 40.956C141.018 40.956 140.782 40.8774 140.598 40.6938C140.415 40.5365 140.336 40.3005 140.336 40.0383V38.5962C139.759 39.3828 139.051 39.9859 138.186 40.4316C137.321 40.8774 136.351 41.0871 135.302 41.0871C134.069 41.0871 132.968 40.7987 131.972 40.1956C130.975 39.6188 130.189 38.8059 129.612 37.7833C129.035 36.7607 128.747 35.607 128.747 34.3484C128.747 33.0898 129.035 31.9361 129.638 30.9135C130.215 29.8909 131.028 29.0781 132.05 28.475C133.073 27.8981 134.227 27.5835 135.485 27.5835C136.744 27.5835 137.898 27.8981 138.92 28.475ZM137.976 38.7273C138.71 38.2815 139.314 37.6784 139.733 36.918C140.153 36.1576 140.362 35.2924 140.362 34.3484C140.362 33.4045 140.153 32.5392 139.733 31.7788C139.314 31.0184 138.71 30.4153 137.976 29.9696C137.242 29.5238 136.403 29.3141 135.485 29.3141C134.568 29.3141 133.728 29.5238 132.968 29.9696C132.208 30.4153 131.631 31.0184 131.211 31.7788C130.792 32.5392 130.582 33.4045 130.582 34.3484C130.582 35.2924 130.792 36.1576 131.211 36.918C131.631 37.6784 132.234 38.2815 132.968 38.7273C133.702 39.173 134.568 39.3828 135.485 39.3828C136.403 39.3828 137.242 39.173 137.976 38.7273Z" fill="white"/>
<path d="M155.465 29.9172C155.596 30.0746 155.648 30.2319 155.648 30.4154C155.648 30.6776 155.517 30.8874 155.229 31.0972C155.071 31.202 154.94 31.2545 154.757 31.2545C154.521 31.2545 154.285 31.1234 154.049 30.8874C153.577 30.363 153.026 29.9435 152.449 29.6812C151.872 29.419 151.217 29.2879 150.509 29.2879C149.617 29.2879 148.831 29.4977 148.123 29.9172C147.441 30.3368 146.89 30.9398 146.523 31.7265C146.156 32.5131 145.946 33.3784 145.946 34.3485C145.946 35.2925 146.156 36.1577 146.55 36.9181C146.943 37.6785 147.52 38.2816 148.254 38.7274C148.988 39.1731 149.801 39.3829 150.745 39.3829C152.03 39.3829 153.078 39.042 153.865 38.3341C154.075 38.1505 154.285 38.0719 154.521 38.0719C154.704 38.0719 154.888 38.1243 155.045 38.2554C155.281 38.4389 155.386 38.6749 155.386 38.9109C155.386 39.1207 155.307 39.3042 155.15 39.4353C153.996 40.5104 152.528 41.061 150.745 41.061C149.486 41.061 148.359 40.7726 147.362 40.1695C146.366 39.5926 145.579 38.7798 145.002 37.7572C144.426 36.7346 144.137 35.5809 144.137 34.3223C144.137 33.0375 144.399 31.8838 144.95 30.835C145.501 29.8123 146.261 28.9995 147.231 28.4227C148.201 27.8458 149.303 27.5574 150.509 27.5574C152.58 27.5836 154.206 28.3702 155.465 29.9172Z" fill="white"/>
<path d="M170.122 27.9771C170.306 28.1345 170.384 28.3705 170.384 28.6327V40.0124C170.384 40.2746 170.306 40.5106 170.122 40.6942C169.939 40.8777 169.729 40.9564 169.44 40.9564C169.152 40.9564 168.942 40.8777 168.785 40.6942C168.628 40.5106 168.523 40.3008 168.523 40.0124V39.1996C167.998 39.8027 167.343 40.2746 166.582 40.6155C165.822 40.9564 165.009 41.1137 164.118 41.1137C162.964 41.1137 161.941 40.8777 161.024 40.3795C160.106 39.9075 159.398 39.1996 158.874 38.2556C158.349 37.3379 158.087 36.2104 158.087 34.9256V28.6327C158.087 28.3705 158.166 28.1607 158.349 27.9771C158.533 27.7936 158.742 27.7149 159.005 27.7149C159.267 27.7149 159.503 27.7936 159.686 27.9771C159.87 28.1607 159.949 28.3705 159.949 28.6327V34.9256C159.949 36.3678 160.342 37.469 161.155 38.2032C161.941 38.9636 162.99 39.3307 164.301 39.3307C165.088 39.3307 165.796 39.1734 166.451 38.8587C167.081 38.5441 167.605 38.1245 167.972 37.5739C168.339 37.0233 168.523 36.4202 168.523 35.7647V28.6064C168.523 28.3442 168.601 28.1083 168.785 27.9509C168.942 27.7936 169.178 27.6887 169.44 27.6887C169.703 27.6887 169.965 27.7936 170.122 27.9771Z" fill="white"/>
<path d="M186.563 28.6328V34.3226C186.563 35.5812 186.275 36.7349 185.672 37.7575C185.069 38.7801 184.282 39.593 183.26 40.196C182.237 40.7729 181.083 41.0876 179.825 41.0876C178.566 41.0876 177.412 40.7991 176.39 40.196C175.367 39.6192 174.554 38.8064 173.977 37.7575C173.401 36.7349 173.086 35.5812 173.086 34.3226C173.086 33.064 173.374 31.9103 173.951 30.8877C174.528 29.8651 175.315 29.0523 176.311 28.4754C177.307 27.8986 178.409 27.5839 179.641 27.5839C180.69 27.5839 181.66 27.7937 182.525 28.2394C183.391 28.6852 184.125 29.2883 184.675 30.0749V22.9691C184.675 22.7069 184.754 22.4709 184.938 22.2874C185.121 22.1038 185.331 22.0251 185.619 22.0251C185.882 22.0251 186.118 22.1038 186.275 22.2874C186.432 22.4709 186.537 22.6807 186.537 22.9691V28.3968C186.563 28.4754 186.563 28.5279 186.563 28.6328ZM182.316 38.7277C183.05 38.2819 183.653 37.6789 184.072 36.9185C184.492 36.1581 184.702 35.2928 184.702 34.3488C184.702 34.0866 184.702 33.8769 184.675 33.7458C184.649 33.7196 184.649 33.6671 184.649 33.6147C184.492 32.3561 183.968 31.3335 183.05 30.5206C182.158 29.7078 181.057 29.3145 179.798 29.3145C178.881 29.3145 178.042 29.5242 177.281 29.97C176.521 30.4157 175.944 31.0188 175.524 31.7792C175.105 32.5396 174.895 33.4049 174.895 34.3488C174.895 35.2928 175.105 36.1581 175.524 36.9185C175.944 37.6789 176.547 38.2819 177.281 38.7277C178.042 39.1734 178.881 39.3832 179.798 39.3832C180.716 39.3832 181.581 39.1734 182.316 38.7277Z" fill="white"/>
<path d="M199.411 28.475C200.434 29.0519 201.246 29.8647 201.823 30.9135C202.4 31.9361 202.715 33.0898 202.715 34.3484V40.0383C202.715 40.3005 202.636 40.5103 202.452 40.6938C202.269 40.8774 202.059 40.956 201.771 40.956C201.509 40.956 201.273 40.8774 201.089 40.6938C200.905 40.5365 200.827 40.3005 200.827 40.0383V38.5962C200.25 39.3828 199.542 39.9859 198.677 40.4316C197.811 40.8774 196.841 41.0871 195.792 41.0871C194.56 41.0871 193.459 40.7987 192.462 40.1956C191.466 39.6188 190.679 38.8059 190.103 37.7833C189.526 36.7607 189.237 35.607 189.237 34.3484C189.237 33.0898 189.526 31.9361 190.129 30.9135C190.706 29.8909 191.518 29.0781 192.541 28.475C193.564 27.8981 194.717 27.5835 195.976 27.5835C197.235 27.5835 198.388 27.8981 199.411 28.475ZM198.467 38.7273C199.201 38.2815 199.804 37.6784 200.224 36.918C200.643 36.1576 200.853 35.2924 200.853 34.3484C200.853 33.4045 200.643 32.5392 200.224 31.7788C199.804 31.0184 199.201 30.4153 198.467 29.9696C197.733 29.5238 196.894 29.3141 195.976 29.3141C195.058 29.3141 194.219 29.5238 193.459 29.9696C192.698 30.4153 192.122 31.0184 191.702 31.7788C191.283 32.5392 191.073 33.4045 191.073 34.3484C191.073 35.2924 191.283 36.1576 191.702 36.918C192.122 37.6784 192.725 38.2815 193.459 38.7273C194.193 39.173 195.058 39.3828 195.976 39.3828C196.894 39.3828 197.733 39.173 198.467 38.7273Z" fill="white"/>
<path d="M82.9382 9.85757C83.279 10.0149 83.5412 10.1984 83.7248 10.4606C83.9083 10.7228 84.0132 11.0113 84.0132 11.3521C84.0132 11.6143 83.9346 11.8766 83.751 12.0863C83.5937 12.2961 83.3577 12.4796 83.0431 12.6107C83.4888 12.6894 83.8297 12.8729 84.0657 13.1352C84.3016 13.3974 84.4327 13.7382 84.4327 14.1578C84.4327 14.5248 84.3279 14.8657 84.1181 15.1804C83.9083 15.4688 83.6199 15.7048 83.2528 15.8883C82.8857 16.0719 82.44 16.1243 81.968 16.1243H79.477C79.3459 16.1243 79.2148 16.0719 79.11 15.9932C79.0051 15.9145 78.9526 15.8097 78.9526 15.6785V10.0673C78.9526 9.93623 79.0051 9.83135 79.11 9.75269C79.2148 9.67402 79.3197 9.62158 79.477 9.62158H81.7845C82.204 9.62158 82.5973 9.70025 82.9382 9.85757ZM82.7022 12.0339C82.9382 11.8766 83.0431 11.6406 83.0431 11.3259C83.0431 11.0113 82.9382 10.8015 82.7022 10.6442C82.4662 10.4869 82.1778 10.4082 81.7845 10.4082H79.9752V12.2699H81.7845C82.1516 12.2961 82.4662 12.2174 82.7022 12.0339ZM83.0693 14.9968C83.3577 14.7871 83.4888 14.4986 83.4888 14.1315C83.4888 13.7907 83.3577 13.5285 83.0693 13.3449C82.8071 13.1614 82.44 13.0827 81.968 13.0827H79.9752V15.3115H81.968C82.44 15.2852 82.8071 15.2066 83.0693 14.9968Z" fill="white"/>
<path d="M97.5704 15.6785C97.5704 15.7834 97.518 15.8883 97.4131 15.967C97.3082 16.0456 97.2033 16.0981 97.046 16.0981C96.9411 16.0981 96.8624 16.0719 96.7838 16.0194C96.7051 15.967 96.6265 15.9145 96.6002 15.8359L96.0496 14.6822H92.5885L92.0378 15.8359C91.9854 15.9145 91.933 15.9932 91.8543 16.0194C91.7756 16.0719 91.6707 16.0981 91.5921 16.0981C91.461 16.0981 91.3299 16.0456 91.2512 15.967C91.1463 15.8883 91.1201 15.7834 91.1201 15.6523C91.1201 15.5999 91.1463 15.5212 91.1726 15.4688L93.8733 9.91001C93.9782 9.72647 94.1355 9.62158 94.3453 9.62158C94.5812 9.62158 94.7386 9.72647 94.8172 9.91001L97.5442 15.4688C97.5704 15.5474 97.5704 15.6261 97.5704 15.6785ZM95.735 13.948L94.3453 11.0113L92.9293 13.948H95.735Z" fill="white"/>
<path d="M109.92 15.7048C109.92 15.8097 109.867 15.9145 109.789 15.9932C109.71 16.0719 109.579 16.0981 109.448 16.0981C109.264 16.0981 109.107 16.0194 109.002 15.8883L107.35 13.6071H107.167H105.934V15.6785C105.934 15.8097 105.882 15.9145 105.803 15.9932C105.698 16.0719 105.593 16.1243 105.436 16.1243C105.305 16.1243 105.174 16.0719 105.069 15.9932C104.964 15.9145 104.912 15.8097 104.912 15.6785V10.0673C104.912 9.93623 104.964 9.83135 105.069 9.75269C105.174 9.67402 105.279 9.62158 105.436 9.62158H107.167C107.639 9.62158 108.058 9.70024 108.451 9.88379C108.818 10.0673 109.107 10.3033 109.317 10.5917C109.526 10.9064 109.631 11.2473 109.631 11.6406C109.631 12.0339 109.526 12.3747 109.29 12.6894C109.054 13.004 108.74 13.2138 108.347 13.3711L109.815 15.4163C109.867 15.5212 109.92 15.5999 109.92 15.7048ZM107.167 12.7943C107.612 12.7943 107.953 12.6894 108.242 12.4796C108.53 12.2699 108.661 11.9814 108.661 11.6668C108.661 11.2997 108.53 11.0113 108.242 10.7753C107.953 10.5393 107.612 10.4344 107.167 10.4344H105.934V12.8205H107.167V12.7943Z" fill="white"/>
<path d="M121.22 9.85757C121.561 10.0149 121.823 10.1984 122.007 10.4606C122.19 10.7228 122.295 11.0113 122.295 11.3521C122.295 11.6143 122.216 11.8766 122.033 12.0863C121.876 12.2961 121.64 12.4796 121.325 12.6107C121.771 12.6894 122.112 12.8729 122.348 13.1352C122.61 13.3974 122.715 13.7382 122.715 14.1578C122.715 14.5248 122.61 14.8657 122.4 15.1804C122.19 15.4688 121.902 15.7048 121.535 15.8883C121.168 16.0719 120.722 16.1243 120.25 16.1243H117.759C117.628 16.1243 117.497 16.0719 117.392 15.9932C117.287 15.9145 117.261 15.8097 117.261 15.6785V10.0673C117.261 9.93623 117.313 9.83135 117.392 9.75269C117.497 9.67402 117.602 9.62158 117.759 9.62158H120.066C120.512 9.62158 120.879 9.70025 121.22 9.85757ZM120.984 12.0339C121.22 11.8766 121.325 11.6406 121.325 11.3259C121.325 11.0113 121.22 10.8015 120.984 10.6442C120.748 10.4869 120.46 10.4082 120.066 10.4082H118.257V12.2699H120.066C120.46 12.2961 120.748 12.2174 120.984 12.0339ZM121.377 14.9968C121.666 14.7871 121.797 14.4986 121.797 14.1315C121.797 13.7907 121.666 13.5285 121.377 13.3449C121.115 13.1614 120.748 13.0827 120.276 13.0827H118.283V15.3115H120.276C120.722 15.2852 121.089 15.2066 121.377 14.9968Z" fill="white"/>
<path d="M135.695 15.4162C135.774 15.4949 135.826 15.5735 135.826 15.7046C135.826 15.8357 135.774 15.9144 135.695 15.9931C135.616 16.0717 135.485 16.0979 135.328 16.0979H130.975C130.844 16.0979 130.713 16.0455 130.608 15.9668C130.503 15.8882 130.477 15.7833 130.477 15.6522V10.041C130.477 9.90986 130.529 9.80498 130.608 9.72632C130.713 9.64766 130.818 9.59521 130.975 9.59521H135.328C135.485 9.59521 135.59 9.62143 135.695 9.7001C135.8 9.77876 135.826 9.88364 135.826 9.98852C135.826 10.0934 135.774 10.1983 135.695 10.277C135.616 10.3556 135.485 10.3818 135.328 10.3818H131.5V12.4008H134.253C134.384 12.4008 134.515 12.427 134.594 12.5057C134.672 12.5844 134.725 12.663 134.725 12.7941C134.725 12.9252 134.672 13.0039 134.594 13.0826C134.515 13.1612 134.384 13.1874 134.253 13.1874H131.5V15.2589H135.354C135.485 15.2851 135.616 15.3375 135.695 15.4162Z" fill="white"/>
<path d="M148.464 15.7048C148.464 15.8097 148.412 15.9145 148.333 15.9932C148.254 16.0719 148.123 16.0981 147.992 16.0981C147.809 16.0981 147.651 16.0194 147.546 15.8883L145.895 13.6071H145.711H144.479V15.6785C144.479 15.8097 144.426 15.9145 144.348 15.9932C144.243 16.0719 144.138 16.1243 143.98 16.1243C143.849 16.1243 143.718 16.0719 143.613 15.9932C143.509 15.9145 143.456 15.8097 143.456 15.6785V10.0673C143.456 9.93623 143.509 9.83135 143.613 9.75269C143.718 9.67402 143.823 9.62158 143.98 9.62158H145.711C146.183 9.62158 146.603 9.70024 146.996 9.88379C147.363 10.0673 147.651 10.3033 147.861 10.5917C148.071 10.9064 148.176 11.2473 148.176 11.6406C148.176 12.0339 148.071 12.3747 147.835 12.6894C147.599 13.004 147.284 13.2138 146.891 13.3711L148.359 15.4163C148.438 15.5212 148.464 15.5999 148.464 15.7048ZM145.711 12.7943C146.157 12.7943 146.498 12.6894 146.786 12.4796C147.075 12.2699 147.206 11.9814 147.206 11.6668C147.206 11.2997 147.075 11.0113 146.786 10.7753C146.498 10.5393 146.157 10.4344 145.711 10.4344H144.479V12.8205H145.711V12.7943Z" fill="white"/>
<path d="M159.739 9.83115C160.106 10.0147 160.447 10.3031 160.709 10.6702C160.788 10.7751 160.814 10.88 160.814 10.9586C160.814 11.0897 160.761 11.1684 160.63 11.2471C160.552 11.2733 160.473 11.2995 160.368 11.2995C160.263 11.2995 160.185 11.2733 160.106 11.2471C160.027 11.2208 159.949 11.1422 159.922 11.0897C159.739 10.8538 159.529 10.644 159.267 10.5129C159.005 10.3818 158.69 10.3293 158.271 10.3293C157.772 10.3293 157.379 10.408 157.091 10.5653C156.776 10.7227 156.645 10.9586 156.645 11.2733C156.645 11.5617 156.776 11.7977 157.038 11.9812C157.3 12.1648 157.799 12.2959 158.48 12.3746C159.241 12.4532 159.844 12.6368 160.263 12.9776C160.683 13.3185 160.893 13.7642 160.893 14.2887C160.893 14.682 160.761 15.0228 160.525 15.3113C160.263 15.5997 159.949 15.8095 159.529 15.9406C159.11 16.0717 158.664 16.1503 158.192 16.1503C157.563 16.1503 157.012 16.0192 156.488 15.7832C155.989 15.5473 155.622 15.2326 155.439 14.8393C155.412 14.7606 155.386 14.7082 155.386 14.682C155.386 14.6033 155.412 14.5247 155.491 14.4722C155.57 14.4198 155.648 14.3673 155.78 14.3411C155.806 14.3411 155.832 14.3411 155.884 14.3411C155.989 14.3411 156.094 14.3673 156.173 14.4198C156.278 14.4722 156.33 14.5509 156.383 14.6295C156.488 14.8393 156.723 15.0228 157.064 15.1802C157.405 15.3375 157.772 15.4161 158.192 15.4161C158.664 15.4161 159.083 15.3113 159.424 15.1277C159.765 14.9442 159.922 14.682 159.922 14.3411C159.922 14.0265 159.791 13.7643 159.503 13.5283C159.214 13.2923 158.795 13.1612 158.218 13.1087C157.431 13.0301 156.802 12.8465 156.33 12.5057C155.884 12.1648 155.648 11.7453 155.648 11.2471C155.648 10.9062 155.753 10.5916 155.989 10.3293C156.225 10.0671 156.54 9.88359 156.959 9.75249C157.379 9.62139 157.825 9.54272 158.323 9.54272C158.9 9.54272 159.372 9.64761 159.739 9.83115Z" fill="white"/>
<path d="M174.318 9.75269C174.423 9.67402 174.528 9.62158 174.685 9.62158C174.816 9.62158 174.947 9.67402 175.026 9.75269C175.131 9.83135 175.157 9.93623 175.157 10.0673V15.6785C175.157 15.8097 175.104 15.9145 175.026 15.9932C174.921 16.0719 174.816 16.1243 174.685 16.1243C174.554 16.1243 174.423 16.0719 174.318 15.9932C174.213 15.9145 174.16 15.8097 174.16 15.6785V13.2138H169.703V15.6785C169.703 15.8097 169.65 15.9145 169.572 15.9932C169.467 16.0719 169.362 16.1243 169.205 16.1243C169.074 16.1243 168.943 16.0719 168.838 15.9932C168.733 15.9145 168.707 15.8097 168.707 15.6785V10.0673C168.707 9.93623 168.759 9.83135 168.838 9.75269C168.943 9.67402 169.047 9.62158 169.205 9.62158C169.362 9.62158 169.467 9.67402 169.572 9.75269C169.677 9.83135 169.703 9.93623 169.703 10.0673V12.4534H174.16V10.0673C174.187 9.93623 174.213 9.83135 174.318 9.75269Z" fill="white"/>
<path d="M188.792 9.96226C189.369 10.2507 189.814 10.644 190.155 11.1422C190.496 11.6404 190.653 12.2172 190.653 12.8465C190.653 13.4758 190.496 14.0527 190.155 14.5509C189.841 15.0491 189.369 15.4424 188.792 15.7308C188.215 16.0192 187.559 16.1503 186.799 16.1503C186.065 16.1503 185.383 16.0192 184.806 15.7308C184.229 15.4424 183.784 15.0491 183.443 14.5509C183.128 14.0527 182.971 13.4758 182.971 12.8465C182.971 12.2172 183.128 11.6404 183.443 11.1422C183.757 10.644 184.203 10.2507 184.806 9.96226C185.383 9.67383 186.039 9.54272 186.799 9.54272C187.559 9.54272 188.215 9.67383 188.792 9.96226ZM185.357 10.644C184.911 10.8538 184.596 11.1684 184.334 11.5617C184.098 11.955 183.967 12.3746 183.967 12.8465C183.967 13.3185 184.098 13.7642 184.334 14.1313C184.57 14.5246 184.911 14.8131 185.357 15.0491C185.803 15.285 186.275 15.3899 186.825 15.3899C187.376 15.3899 187.874 15.285 188.293 15.0491C188.713 14.8131 189.08 14.5246 189.316 14.1313C189.552 13.738 189.683 13.3185 189.683 12.8465C189.683 12.3746 189.552 11.9288 189.316 11.5617C189.08 11.1684 188.739 10.88 188.293 10.644C187.848 10.4342 187.376 10.3031 186.825 10.3031C186.275 10.3031 185.776 10.4342 185.357 10.644Z" fill="white"/>
<path d="M199.332 15.9668C199.227 16.0455 199.122 16.0979 198.965 16.0979C198.834 16.0979 198.703 16.0455 198.598 15.9668C198.493 15.8882 198.467 15.7833 198.467 15.6522V10.041C198.467 9.90986 198.519 9.80498 198.598 9.72632C198.703 9.64766 198.808 9.59521 198.965 9.59521H200.879C201.351 9.59521 201.771 9.67388 202.164 9.85742C202.531 10.041 202.819 10.3032 203.029 10.6178C203.239 10.9325 203.344 11.3258 203.344 11.7191C203.344 12.1124 203.239 12.4795 203.029 12.7941C202.819 13.1088 202.531 13.3448 202.164 13.5283C201.797 13.7119 201.351 13.7905 200.879 13.7905H199.463V15.5997C199.463 15.7833 199.437 15.8882 199.332 15.9668ZM201.98 12.6892C202.269 12.4533 202.4 12.1386 202.4 11.7715C202.4 11.3782 202.269 11.0636 201.98 10.8014C201.692 10.5392 201.351 10.4081 200.905 10.4081H199.489V13.0301H200.905C201.325 13.0563 201.692 12.9252 201.98 12.6892Z" fill="white"/>
</svg>
