<svg width="777" height="391" viewBox="0 0 777 391" fill="none" xmlns="http://www.w3.org/2000/svg">
<path d="M422.248 333.767C421.248 330.737 418.548 329.857 418.448 329.857C417.848 329.662 417.249 330.151 417.149 331.03C416.949 331.812 417.349 332.692 417.849 332.985C418.149 333.181 418.449 333.474 418.549 333.963C418.749 334.647 418.649 335.429 418.549 335.527C418.349 335.82 417.949 336.309 417.049 336.602C415.949 336.896 413.049 337.091 408.849 332.79C401.749 325.458 395.748 329.075 393.148 331.421C390.548 329.075 384.548 325.458 377.448 332.79C373.248 337.091 370.248 336.896 369.248 336.602C368.348 336.407 367.848 335.918 367.748 335.527C367.648 335.331 367.548 334.647 367.748 333.963C367.848 333.474 368.048 333.181 368.448 332.985C369.048 332.692 369.348 331.91 369.148 331.03C368.948 330.248 368.448 329.76 367.848 329.857C367.748 329.857 365.048 330.737 364.048 333.767C363.448 335.723 363.548 338.069 364.648 340.708C365.648 343.347 367.748 345.302 370.448 346.378C372.148 347.062 374.148 347.355 376.248 347.355C381.748 347.355 388.148 345.205 393.148 341.49C398.148 345.205 404.549 347.355 410.049 347.355C412.149 347.355 414.149 347.062 415.849 346.378C418.649 345.302 420.649 343.347 421.649 340.708C422.649 338.069 422.848 335.723 422.248 333.767Z" fill="#306AFF"/>
<path d="M157.149 312.066L162.349 313.239C163.549 313.532 164.449 313.826 165.149 314.119C165.749 314.412 166.149 314.803 166.349 315.292C166.549 315.683 166.549 316.27 166.349 316.954L165.949 318.518C165.849 318.811 165.649 319.104 165.249 319.398C164.849 319.593 164.549 319.789 164.149 319.789V319.886C164.649 320.082 165.049 320.375 165.349 320.864C165.649 321.353 165.749 321.744 165.649 322.233L165.149 324.09C164.949 325.067 164.349 325.752 163.349 325.947C162.449 326.143 161.049 326.045 159.349 325.654L154.049 324.383L157.149 312.066ZM159.849 323.503C160.549 323.699 161.149 323.699 161.549 323.601C161.949 323.503 162.149 323.308 162.249 322.917L162.449 321.939C162.549 321.451 162.549 321.157 162.349 320.864C162.149 320.571 161.749 320.375 161.149 320.278L158.549 319.691L157.749 323.015L159.849 323.503ZM161.049 318.225C161.549 318.322 161.949 318.42 162.149 318.322C162.449 318.322 162.549 318.225 162.749 318.029C162.849 317.834 162.949 317.638 163.049 317.345L163.149 316.758C163.249 316.465 163.249 316.27 163.149 316.074C163.149 315.879 162.949 315.781 162.749 315.683C162.549 315.585 162.149 315.488 161.649 315.292L159.549 314.803L158.849 317.736L161.049 318.225Z" fill="white"/>
<path d="M170.949 328L171.449 325.752C172.349 326.143 173.049 326.436 173.649 326.631C174.249 326.827 174.849 327.022 175.549 327.12C176.549 327.316 177.249 327.413 177.649 327.218C178.049 327.12 178.349 326.827 178.449 326.436L178.749 325.263C178.849 324.872 178.649 324.579 178.349 324.383C178.049 324.187 177.349 323.992 176.449 323.797L173.849 323.308L174.349 321.157L176.949 321.646C177.549 321.744 177.949 321.841 178.249 321.841C178.549 321.841 178.749 321.744 178.949 321.646C179.049 321.548 179.149 321.353 179.249 321.059L179.449 320.082C179.549 319.691 179.449 319.398 179.149 319.202C178.849 319.007 178.249 318.811 177.449 318.616C176.349 318.42 174.949 318.322 173.349 318.322L173.849 316.074C175.549 316.074 177.049 316.269 178.449 316.563C180.149 316.954 181.249 317.345 181.949 317.834C182.649 318.322 182.849 319.104 182.649 319.984L182.249 321.939C182.149 322.33 181.949 322.623 181.649 322.819C181.349 323.014 180.949 323.112 180.549 323.21V323.308C181.649 323.894 182.149 324.676 181.949 325.556L181.549 327.609C181.349 328.586 180.749 329.271 179.749 329.564C178.749 329.857 177.349 329.857 175.649 329.466C173.749 328.977 172.249 328.489 170.949 328Z" fill="white"/>
<path d="M185.648 318.225L195.548 320.082L195.148 322.233L188.448 320.962L187.848 323.797L193.948 324.97L193.548 327.12L187.448 325.947L186.848 329.173L193.748 330.542L193.348 332.692L183.248 330.737L185.648 318.225Z" fill="white"/>
<path d="M197.748 320.571L202.948 321.451C204.248 321.646 205.248 321.939 205.948 322.233C206.648 322.526 207.148 322.917 207.448 323.406C207.748 323.894 207.748 324.481 207.648 325.263L207.248 327.609C207.148 328.391 206.848 329.075 206.348 329.466C205.848 329.857 205.248 330.053 204.448 330.151C203.648 330.248 202.548 330.151 201.148 329.857L199.448 329.564L198.748 333.67L195.648 333.083L197.748 320.571ZM201.748 327.805C202.548 327.902 203.148 328 203.548 327.805C203.948 327.609 204.148 327.414 204.248 326.925L204.648 324.97C204.748 324.579 204.648 324.285 204.348 324.09C204.048 323.894 203.448 323.699 202.648 323.601L200.748 323.308L199.948 327.511L201.748 327.805Z" fill="white"/>
<path d="M210.35 322.721L213.45 323.21L212.65 328.196C213.25 328.293 213.75 328.293 214.15 328.098C214.55 327.902 215.05 327.609 215.55 327.023L218.55 323.992L222.05 324.579L218.65 327.902C218.15 328.391 217.65 328.782 217.25 329.075C216.85 329.369 216.35 329.466 215.85 329.564C216.45 329.857 217.05 330.151 217.35 330.639C217.75 331.128 218.05 331.715 218.35 332.594L219.95 337.091L216.45 336.505L214.95 332.497C214.75 332.008 214.55 331.519 214.35 331.226C214.15 330.933 213.85 330.737 213.55 330.542C213.25 330.444 212.85 330.248 212.35 330.248L211.45 335.723L208.35 335.234L210.35 322.721Z" fill="white"/>
<path d="M226.948 325.263L230.748 325.849L233.548 339.046L230.348 338.557L229.648 335.038L224.848 334.354L223.248 337.482L220.148 337.091L226.948 325.263ZM229.348 332.986L228.448 328H228.348L226.048 332.497L229.348 332.986Z" fill="white"/>
<path d="M235.248 339.339C235.048 339.242 234.848 339.242 234.748 339.144L235.048 336.798C235.348 336.896 235.548 336.896 235.748 336.993C236.448 337.091 236.948 336.993 237.348 336.602C237.748 336.309 238.148 335.625 238.448 334.55C238.748 333.474 239.048 331.812 239.348 329.564L239.648 327.022L249.148 328.196L247.448 340.806L244.348 340.415L245.748 329.955L242.248 329.466L242.048 331.226C241.748 333.572 241.248 335.429 240.648 336.7C240.048 337.971 239.348 338.753 238.548 339.144C237.748 339.535 236.848 339.633 235.948 339.535C235.648 339.437 235.448 339.437 235.248 339.339Z" fill="white"/>
<path d="M252.048 328.489L262.048 329.564L261.848 331.715L255.048 330.933L254.748 333.865L260.948 334.549L260.748 336.7L254.548 336.016L254.148 339.242L261.148 340.024L260.948 342.174L250.748 341.099L252.048 328.489Z" fill="white"/>
<path d="M269.149 330.346L274.449 330.835C275.749 330.933 276.649 331.128 277.349 331.324C278.049 331.519 278.449 331.91 278.749 332.301C278.949 332.692 279.049 333.279 279.049 333.963L278.949 335.527C278.949 335.918 278.749 336.211 278.449 336.505C278.149 336.798 277.749 336.993 277.349 337.091V337.189C277.849 337.287 278.349 337.58 278.649 337.971C279.049 338.362 279.249 338.851 279.149 339.242L278.949 341.197C278.849 342.174 278.349 342.956 277.449 343.25C276.549 343.543 275.249 343.739 273.449 343.543L267.949 343.054L269.149 330.346ZM273.549 341.295C274.349 341.392 274.849 341.295 275.249 341.197C275.549 341.099 275.749 340.806 275.849 340.415L275.949 339.437C275.949 338.949 275.949 338.655 275.649 338.362C275.449 338.167 274.949 337.971 274.349 337.971L271.649 337.678L271.349 341.001L273.549 341.295ZM273.949 335.918C274.449 335.918 274.849 335.918 275.049 335.918C275.349 335.82 275.449 335.723 275.549 335.625C275.649 335.429 275.749 335.234 275.749 334.843L275.849 334.256C275.849 333.963 275.849 333.768 275.749 333.572C275.649 333.377 275.549 333.279 275.249 333.181C275.049 333.083 274.649 332.986 274.049 332.986L271.949 332.79L271.649 335.723L273.949 335.918Z" fill="white"/>
<path d="M285.249 344.618C284.749 344.52 284.249 344.423 283.749 344.227C283.149 344.031 282.649 343.738 282.249 343.445C281.849 343.152 281.549 342.761 281.349 342.272C281.149 341.783 281.049 341.197 281.049 340.61L281.549 335.038C281.749 332.497 283.849 331.421 287.949 331.714C288.949 331.812 290.349 332.008 292.049 332.497L291.849 334.745C290.349 334.256 288.949 333.963 287.749 333.865C287.249 333.865 286.849 333.767 286.549 333.767C286.249 333.767 285.949 333.767 285.649 333.865C284.949 334.061 284.649 334.452 284.549 335.136L284.149 340.512C284.049 341.685 285.049 342.272 287.249 342.467C288.149 342.565 289.549 342.467 291.249 342.174L291.049 344.52C289.549 344.716 288.149 344.716 286.749 344.618C286.149 344.716 285.649 344.716 285.249 344.618Z" fill="white"/>
<path d="M294.148 332.399L304.148 333.083L303.948 335.234L297.048 334.745L296.848 337.678L303.048 338.069L302.848 340.219L296.648 339.828L296.448 343.054L303.548 343.543L303.348 345.693L293.148 345.009L294.148 332.399Z" fill="white"/>
<path d="M306.55 333.279L315.35 333.768L315.25 335.918L309.65 335.625L309.05 346.084L305.85 345.889L306.55 333.279Z" fill="white"/>
<path d="M315.649 344.325H315.949C316.549 344.325 316.949 344.129 317.349 343.738C317.749 343.347 318.049 342.565 318.249 341.49C318.449 340.415 318.649 338.851 318.749 336.896L318.849 333.865L328.449 334.256L327.949 344.814L329.849 344.911L329.649 349.995L326.849 349.897L326.949 346.964L318.449 346.573L318.349 349.506L315.549 349.408L315.649 344.325ZM324.849 344.716L325.249 336.309L321.649 336.114L321.549 337.678C321.449 341.001 320.849 343.25 319.949 344.423L324.849 344.716Z" fill="white"/>
<path d="M335.749 334.549L339.649 334.647L344.049 347.453L340.849 347.355L339.749 343.934L334.949 343.836L333.649 347.16L330.549 347.062L335.749 334.549ZM339.049 341.979L337.549 337.189H337.449L335.649 341.881L339.049 341.979Z" fill="white"/>
<path d="M443.049 332.692L451.849 332.106L452.049 334.256L446.449 334.647L447.149 345.107L443.949 345.302L443.049 332.692Z" fill="white"/>
<path d="M458.649 344.325C458.049 344.325 457.349 344.129 456.749 344.032C456.049 343.836 455.449 343.543 454.949 343.054C454.449 342.565 454.249 341.979 454.149 341.197L453.649 335.625C453.549 335.038 453.649 334.452 453.949 333.963C454.249 333.474 454.549 332.985 454.949 332.692C455.349 332.399 455.849 332.203 456.349 331.91C456.949 331.715 457.449 331.519 457.949 331.421C458.449 331.324 458.949 331.324 459.449 331.226C460.049 331.226 460.649 331.128 461.049 331.128C461.549 331.128 462.049 331.226 462.649 331.324C463.349 331.421 463.849 331.617 464.349 331.91C464.749 332.106 465.149 332.497 465.449 332.888C465.749 333.376 465.949 333.865 466.049 334.55L466.549 340.121C466.649 340.806 466.449 341.49 466.149 341.979C465.849 342.468 465.349 342.956 464.649 343.25C463.449 343.836 462.149 344.129 460.649 344.227C459.949 344.423 459.249 344.423 458.649 344.325ZM461.649 342.077C461.949 341.979 462.249 341.979 462.549 341.783C462.849 341.686 463.049 341.49 463.249 341.295C463.449 341.099 463.449 340.806 463.449 340.512L462.949 334.941C462.949 334.354 462.649 333.963 462.049 333.768C461.549 333.572 460.749 333.474 459.649 333.572C458.549 333.67 457.849 333.865 457.349 334.158C456.849 334.452 456.649 334.941 456.749 335.527L457.249 341.099C457.249 341.392 457.349 341.686 457.549 341.881C457.749 342.077 458.049 342.174 458.349 342.272C458.649 342.37 458.949 342.37 459.349 342.37C459.749 342.37 460.049 342.37 460.449 342.37C460.949 342.174 461.349 342.077 461.649 342.077Z" fill="white"/>
<path d="M468.449 330.835L473.749 330.346C475.049 330.249 476.049 330.249 476.849 330.346C477.649 330.444 478.149 330.737 478.549 331.128C478.949 331.519 479.149 332.106 479.249 332.888L479.449 335.234C479.549 336.114 479.449 336.7 479.049 337.189C478.749 337.678 478.149 338.069 477.349 338.362C476.549 338.655 475.449 338.851 474.149 338.949L472.449 339.144L472.849 343.25L469.649 343.543L468.449 330.835ZM474.249 336.798C475.049 336.7 475.649 336.602 475.949 336.407C476.249 336.211 476.449 335.82 476.349 335.429L476.149 333.377C476.149 332.986 475.949 332.692 475.549 332.595C475.249 332.497 474.649 332.497 473.749 332.595L471.749 332.79L472.149 337.091L474.249 336.798Z" fill="white"/>
<path d="M484.449 337.091C483.549 337.091 482.949 336.895 482.449 336.504C481.949 336.113 481.749 335.527 481.649 334.843L481.349 332.301C481.249 331.324 481.549 330.639 482.349 330.15C483.049 329.662 484.349 329.368 486.049 329.173L491.849 328.586L493.149 341.197L490.049 341.49L489.549 336.798L487.649 336.993L485.049 341.979L481.449 342.37L484.449 337.091ZM489.349 334.843L488.949 331.03L486.349 331.324C485.649 331.421 485.149 331.519 484.849 331.714C484.549 331.91 484.449 332.301 484.549 332.692L484.649 333.865C484.749 334.452 484.849 334.745 485.149 334.94C485.449 335.136 485.949 335.136 486.649 335.038L489.349 334.843Z" fill="white"/>
<path d="M503.249 335.234C502.249 335.918 500.949 336.407 499.549 336.504C498.449 336.602 497.449 336.504 496.649 336.016C495.849 335.527 495.349 334.647 495.149 333.376L494.549 328.391L497.649 328L498.249 332.79C498.349 333.376 498.549 333.767 498.849 333.963C499.149 334.158 499.649 334.158 500.149 334.158C500.749 334.061 501.249 333.963 501.749 333.767C502.249 333.572 502.649 333.279 502.949 332.985L502.349 327.511L505.449 327.12L506.949 339.73L503.849 340.121L503.249 335.234Z" fill="white"/>
<path d="M508.35 326.729L511.45 326.338L512.55 334.941L517.05 325.654L520.15 325.263L521.75 337.873L518.65 338.264L517.55 329.466L513.15 338.948L510.05 339.339L508.35 326.729Z" fill="white"/>
<path d="M523.148 324.872L526.248 324.481L527.448 333.083L531.848 323.699L534.948 323.308L536.748 335.918L533.648 336.309L532.448 327.609L528.048 337.091L524.948 337.482L523.148 324.872ZM525.748 322.33C524.948 321.842 524.548 321.157 524.448 320.277L526.948 319.984C527.048 320.571 527.348 320.864 527.548 321.059C527.848 321.255 528.148 321.353 528.648 321.255C529.148 321.157 529.448 321.06 529.648 320.766C529.848 320.473 529.948 320.082 529.948 319.495L532.448 319.202C532.548 320.082 532.348 320.864 531.748 321.548C531.148 322.233 530.148 322.624 528.848 322.819C527.548 322.917 526.548 322.819 525.748 322.33Z" fill="white"/>
<path d="M542.748 322.233L554.248 320.473L556.248 332.985L553.148 333.474L551.548 323.015L546.348 323.797L547.948 334.256L544.848 334.745L542.748 322.233Z" fill="white"/>
<path d="M560.55 319.495L564.35 318.909L571.15 330.639L567.95 331.128L566.25 328L561.55 328.782L560.95 332.301L557.85 332.79L560.55 319.495ZM565.25 326.143L562.85 321.744H562.75L561.95 326.729L565.25 326.143Z" fill="white"/>
<path d="M570.549 317.834L575.749 316.954C577.049 316.758 578.049 316.661 578.849 316.661C579.649 316.661 580.249 316.856 580.649 317.247C581.049 317.638 581.349 318.127 581.449 318.909L581.849 321.255C581.949 322.037 581.949 322.721 581.649 323.308C581.349 323.797 580.849 324.285 580.049 324.579C579.249 324.872 578.249 325.165 576.849 325.458L575.149 325.752L575.849 329.857L572.749 330.346L570.549 317.834ZM576.849 323.406C577.649 323.308 578.249 323.112 578.549 322.819C578.849 322.624 578.949 322.233 578.849 321.744L578.449 319.789C578.349 319.398 578.149 319.104 577.849 319.104C577.549 319.007 576.949 319.104 576.049 319.202L574.149 319.495L574.949 323.699L576.849 323.406Z" fill="white"/>
<path d="M583.248 315.683L593.148 313.923L593.548 316.074L586.748 317.345L587.248 320.18L593.348 319.104L593.748 321.255L587.648 322.33L588.248 325.556L595.248 324.285L595.648 326.436L585.548 328.293L583.248 315.683Z" fill="white"/>
<path d="M595.449 313.435L598.549 312.848L599.549 317.834L605.049 316.758L604.049 311.773L607.149 311.186L609.649 323.601L606.549 324.188L605.449 318.811L599.949 319.886L601.049 325.263L597.949 325.849L595.449 313.435Z" fill="white"/>
<path d="M610.049 310.6L613.149 310.013L614.149 314.608L615.649 314.315C616.949 314.021 617.949 313.924 618.749 313.826C619.549 313.826 620.149 313.924 620.649 314.217C621.149 314.51 621.449 314.999 621.649 315.781L622.149 318.127C622.549 320.082 621.049 321.45 617.549 322.135L612.649 323.112L610.049 310.6ZM616.949 319.984C617.749 319.789 618.249 319.593 618.549 319.3C618.849 319.007 618.949 318.616 618.849 318.225L618.549 316.856C618.449 316.465 618.249 316.27 617.849 316.172C617.449 316.074 616.849 316.172 616.149 316.27L614.449 316.661L615.249 320.277L616.949 319.984Z" fill="white"/>
<path d="M335.692 375.2H346.611V377.649H339.133V380.935H345.883V383.384H339.133V387.068H346.832V389.517H335.692V375.2ZM353.788 389.737C352.42 389.737 350.729 389.605 348.714 389.34V386.715C351.215 387.097 352.92 387.289 353.832 387.289C355.744 387.289 356.7 386.796 356.7 385.811V384.884C356.7 384.414 356.56 384.053 356.281 383.803C356.016 383.553 355.531 383.428 354.825 383.428H353.148C350.001 383.428 348.428 382.178 348.428 379.678V378.619C348.428 377.369 348.95 376.45 349.994 375.862C351.038 375.274 352.692 374.979 354.957 374.979C356.134 374.979 357.626 375.075 359.435 375.266V377.825C357.215 377.56 355.685 377.428 354.847 377.428C353.685 377.428 352.906 377.524 352.509 377.715C352.082 377.921 351.869 378.244 351.869 378.685V379.7C351.869 380.45 352.501 380.825 353.766 380.825H355.487C357.119 380.825 358.303 381.127 359.038 381.73C359.774 382.333 360.141 383.252 360.141 384.487V385.436C360.141 387.142 359.531 388.296 358.31 388.899C357.722 389.208 357.068 389.421 356.347 389.539C355.641 389.671 354.788 389.737 353.788 389.737ZM365.842 377.649H361.43V375.2H373.673V377.649H369.284V389.517H365.842V377.649ZM375.212 386.472H378.653V389.517H375.212V386.472ZM381.032 386.252C381.032 385.458 381.253 384.766 381.694 384.178C382.135 383.59 382.709 383.141 383.415 382.833C383.973 382.583 384.628 382.333 385.378 382.083C386.128 381.833 386.709 381.568 387.121 381.288C387.532 381.009 387.738 380.678 387.738 380.296V378.465C387.738 378.009 387.554 377.707 387.187 377.56C386.79 377.399 386.172 377.318 385.334 377.318C384.319 377.318 382.981 377.502 381.319 377.869V375.443C382.79 375.134 384.326 374.979 385.929 374.979C387.665 374.979 388.952 375.244 389.79 375.774C390.643 376.303 391.069 377.185 391.069 378.421V380.406C391.069 381.156 390.841 381.811 390.385 382.369C389.944 382.913 389.371 383.325 388.665 383.605C388.003 383.884 387.326 384.134 386.635 384.355C385.885 384.619 385.29 384.914 384.848 385.237C384.422 385.561 384.209 385.943 384.209 386.384V387.112H391.091V389.517H381.032V386.252ZM398.924 389.737C398.277 389.737 397.748 389.715 397.336 389.671C396.924 389.627 396.476 389.539 395.99 389.406C395.49 389.259 395.086 389.053 394.777 388.789C394.468 388.509 394.211 388.112 394.005 387.597C393.784 387.097 393.674 386.494 393.674 385.789V378.928C393.674 378.252 393.777 377.656 393.983 377.141C394.189 376.627 394.453 376.222 394.777 375.928C395.056 375.678 395.439 375.479 395.924 375.332C396.409 375.171 396.895 375.068 397.38 375.024C397.939 374.994 398.454 374.979 398.924 374.979C399.586 374.979 400.115 375.001 400.512 375.046C400.909 375.075 401.351 375.163 401.836 375.31C402.365 375.472 402.785 375.685 403.093 375.95C403.402 376.215 403.667 376.597 403.887 377.097C404.108 377.597 404.218 378.207 404.218 378.928V385.789C404.218 386.465 404.108 387.061 403.887 387.575C403.682 388.09 403.417 388.487 403.093 388.767C402.799 389.017 402.395 389.222 401.88 389.384C401.38 389.546 400.902 389.642 400.446 389.671C400.034 389.715 399.527 389.737 398.924 389.737ZM398.968 387.664C399.586 387.664 400.027 387.627 400.292 387.553C400.557 387.465 400.733 387.311 400.821 387.09C400.909 386.869 400.954 386.509 400.954 386.009V378.707C400.954 378.207 400.909 377.847 400.821 377.627C400.733 377.406 400.557 377.259 400.292 377.185C400.027 377.097 399.586 377.053 398.968 377.053C398.336 377.053 397.88 377.097 397.601 377.185C397.336 377.259 397.159 377.406 397.071 377.627C396.983 377.847 396.939 378.207 396.939 378.707V386.009C396.939 386.509 396.983 386.869 397.071 387.09C397.159 387.311 397.336 387.465 397.601 387.553C397.88 387.627 398.336 387.664 398.968 387.664ZM406.625 386.252C406.625 385.458 406.845 384.766 407.286 384.178C407.728 383.59 408.301 383.141 409.007 382.833C409.566 382.583 410.22 382.333 410.97 382.083C411.72 381.833 412.301 381.568 412.713 381.288C413.125 381.009 413.331 380.678 413.331 380.296V378.465C413.331 378.009 413.147 377.707 412.779 377.56C412.382 377.399 411.764 377.318 410.926 377.318C409.911 377.318 408.573 377.502 406.911 377.869V375.443C408.382 375.134 409.919 374.979 411.522 374.979C413.257 374.979 414.544 375.244 415.382 375.774C416.235 376.303 416.662 377.185 416.662 378.421V380.406C416.662 381.156 416.434 381.811 415.978 382.369C415.537 382.913 414.963 383.325 414.257 383.605C413.595 383.884 412.919 384.134 412.228 384.355C411.478 384.619 410.882 384.914 410.441 385.237C410.014 385.561 409.801 385.943 409.801 386.384V387.112H416.684V389.517H406.625V386.252ZM424.516 389.737C423.869 389.737 423.34 389.715 422.928 389.671C422.516 389.627 422.068 389.539 421.583 389.406C421.083 389.259 420.678 389.053 420.369 388.789C420.06 388.509 419.803 388.112 419.597 387.597C419.377 387.097 419.266 386.494 419.266 385.789V378.928C419.266 378.252 419.369 377.656 419.575 377.141C419.781 376.627 420.046 376.222 420.369 375.928C420.649 375.678 421.031 375.479 421.516 375.332C422.002 375.171 422.487 375.068 422.972 375.024C423.531 374.994 424.046 374.979 424.516 374.979C425.178 374.979 425.708 375.001 426.105 375.046C426.502 375.075 426.943 375.163 427.428 375.31C427.958 375.472 428.377 375.685 428.686 375.95C428.995 376.215 429.259 376.597 429.48 377.097C429.7 377.597 429.811 378.207 429.811 378.928V385.789C429.811 386.465 429.7 387.061 429.48 387.575C429.274 388.09 429.009 388.487 428.686 388.767C428.392 389.017 427.987 389.222 427.472 389.384C426.972 389.546 426.494 389.642 426.039 389.671C425.627 389.715 425.119 389.737 424.516 389.737ZM424.561 387.664C425.178 387.664 425.619 387.627 425.884 387.553C426.149 387.465 426.325 387.311 426.414 387.09C426.502 386.869 426.546 386.509 426.546 386.009V378.707C426.546 378.207 426.502 377.847 426.414 377.627C426.325 377.406 426.149 377.259 425.884 377.185C425.619 377.097 425.178 377.053 424.561 377.053C423.928 377.053 423.472 377.097 423.193 377.185C422.928 377.259 422.752 377.406 422.663 377.627C422.575 377.847 422.531 378.207 422.531 378.707V386.009C422.531 386.509 422.575 386.869 422.663 387.09C422.752 387.311 422.928 387.465 423.193 387.553C423.472 387.627 423.928 387.664 424.561 387.664Z" fill="white"/>
<path d="M314.648 382.937H289.648C288.848 382.937 288.148 382.253 288.148 381.471C288.148 380.689 288.848 380.005 289.648 380.005H314.648C315.448 380.005 316.148 380.689 316.148 381.471C316.148 382.253 315.448 382.937 314.648 382.937Z" fill="#306AFF"/>
<path d="M486.648 382.937H461.648C460.848 382.937 460.148 382.253 460.148 381.471C460.148 380.689 460.848 380.005 461.648 380.005H486.648C487.448 380.005 488.148 380.689 488.148 381.471C488.148 382.253 487.448 382.937 486.648 382.937Z" fill="#306AFF"/>
<path d="M410.049 5.31572L407.049 2.38312L408.849 0.623535L416.749 8.34605L414.949 10.1056L411.949 7.17303L395.249 23.4978L393.249 21.5428L410.049 5.31572Z" fill="white"/>
<path d="M421.348 11.1809L414.848 17.5349C416.048 17.0461 417.548 17.2416 418.948 18.6101C421.048 20.663 420.148 22.8136 418.048 24.8664L407.348 35.326L405.348 33.3709L415.548 23.4001C416.748 22.227 417.748 20.9562 416.348 19.6854C414.848 18.2191 413.348 19.0012 411.248 20.9562L401.948 30.0473L399.948 28.0922L419.248 9.22583L421.348 11.1809Z" fill="white"/>
<path d="M418.648 33.2733L416.348 35.5216C414.948 36.8902 413.748 38.552 415.148 39.9205C416.448 41.1913 417.848 40.4093 419.148 39.0407L419.248 38.943L421.148 40.8003L421.048 40.8981C419.448 42.4621 416.548 44.6127 413.348 41.4846C410.448 38.6497 411.648 36.1081 414.548 33.2733L419.748 28.1901C421.848 26.1373 424.948 24.5732 427.848 27.3103C430.548 29.9497 429.348 32.6868 426.848 35.1306C426.048 35.9126 424.448 37.4767 423.648 38.2587L418.648 33.2733ZM423.548 34.9351L425.348 33.1755C426.648 31.9047 427.748 30.4384 426.348 29.0699C425.048 27.7991 423.548 28.4833 422.048 29.9496L420.348 31.6115L423.548 34.9351Z" fill="white"/>
<path d="M461.449 105.22C458.649 102.287 455.849 99.3546 452.949 96.5198C451.949 95.5423 451.749 95.0535 452.949 93.9782C457.649 89.7748 460.349 84.4961 460.949 78.2399C461.149 75.9915 460.749 75.5028 458.349 75.5028C449.649 75.5028 440.949 75.5028 432.249 75.5028C430.849 75.5028 429.949 75.1118 428.949 74.232C407.649 53.5083 386.349 32.7845 365.049 12.0608C360.149 7.27086 353.349 7.27086 348.449 12.1585C346.049 14.6024 343.549 16.9485 341.149 19.3923C339.249 21.2496 339.249 21.5429 341.249 23.4002C351.649 33.1755 362.049 43.0486 372.349 52.824C377.849 58.0049 383.349 63.1859 388.749 68.3668C390.249 69.8331 390.749 69.8331 392.249 68.269C393.249 67.2915 394.349 66.2162 395.349 65.2387C397.649 62.9903 397.649 62.6971 395.249 60.4488C381.149 47.1543 367.049 33.7621 353.049 20.4676C352.149 19.5878 351.249 18.1215 349.849 19.4901C348.449 20.8586 349.949 21.7384 350.849 22.6181C364.649 35.7171 378.449 48.8161 392.249 61.8173C393.249 62.6971 393.349 63.2836 392.249 64.0656C392.049 64.2611 391.849 64.4566 391.649 64.6521C390.949 65.6297 390.349 65.6297 389.349 64.7499C385.649 61.133 381.949 57.7117 378.249 54.1925C367.049 43.6352 355.949 33.0778 344.749 22.6181C343.749 21.7384 343.749 21.2496 344.749 20.2721C346.849 18.317 348.849 16.2642 350.849 14.2113C354.449 10.6922 359.149 10.6922 362.749 14.1136C384.349 35.0329 405.849 55.9521 427.449 76.9691C428.449 77.9466 429.449 78.3376 430.749 78.3376C434.949 78.2399 439.149 78.3376 443.349 78.3376C447.749 78.3376 452.249 78.3376 456.649 78.3376C457.649 78.3376 458.049 78.5331 457.849 79.7062C456.849 85.4736 453.849 90.0681 449.249 93.5872C447.649 94.858 447.549 95.4445 449.049 96.9108C451.749 99.7457 454.549 102.581 457.249 105.415C457.949 106.1 457.949 106.393 456.849 106.686C453.249 107.37 450.049 106.588 447.449 104.047C445.649 102.287 443.849 100.528 442.049 98.7681C441.249 97.9861 440.449 97.5951 439.549 98.3771C438.549 99.2569 438.949 100.137 439.849 100.919C441.549 102.581 443.249 104.242 444.949 105.806C449.349 110.01 455.149 111.085 460.849 108.641C462.749 107.761 462.949 106.882 461.449 105.22Z" fill="#306AFF"/>
<path d="M433.949 96.8132C430.549 96.8132 427.149 96.8132 423.749 96.8132C422.249 96.8132 421.549 96.3245 421.649 94.7604C421.749 93.0008 421.649 91.339 421.649 89.5794C421.649 86.5491 420.149 84.7895 417.549 84.7895C415.049 84.7895 413.449 86.5491 413.449 89.4817C413.449 91.339 413.449 93.2941 413.449 95.1514C413.449 96.0312 413.149 96.7155 412.149 96.7155C411.249 96.7155 411.049 95.9334 411.049 95.1514C411.049 93.1963 411.049 91.1435 411.049 89.1884C410.949 86.4513 409.249 84.7895 406.749 84.7895C404.349 84.8873 402.749 86.6468 402.749 89.1884C402.749 91.1435 402.749 93.0986 402.749 95.0537C402.749 95.9334 402.549 96.7155 401.549 96.7155C400.549 96.7155 400.249 96.0312 400.249 95.0537C400.249 93.0008 400.249 90.948 400.249 88.8952C400.249 86.4513 398.549 84.6918 396.149 84.7895C393.749 84.7895 392.149 86.4513 392.049 88.9929C392.049 91.0457 392.049 93.0986 392.049 95.1514C392.049 96.0312 391.749 96.7155 390.749 96.7155C389.849 96.7155 389.549 96.0312 389.549 95.1514C389.549 93.1963 389.549 91.1435 389.549 89.1884C389.549 86.5491 387.849 84.7895 385.449 84.7895C382.949 84.7895 381.249 86.4513 381.249 89.1884C381.249 90.948 381.249 92.6098 381.249 94.3694C381.249 95.3469 381.549 96.6177 380.049 96.7155C378.549 96.7155 378.749 95.4447 378.749 94.4671C378.749 92.6098 378.749 90.7525 378.749 88.9929C378.749 86.5491 377.049 84.7895 374.649 84.7895C372.249 84.7895 370.549 86.4513 370.549 88.9929C370.549 90.948 370.549 93.0008 370.549 94.9559C370.549 95.9334 370.349 96.7155 369.249 96.7155C368.149 96.7155 368.049 95.9334 368.049 95.0537C368.049 93.0008 368.049 90.948 367.949 88.8952C367.849 86.3536 366.149 84.7895 363.749 84.7895C361.449 84.7895 359.749 86.5491 359.649 88.9929C359.649 90.8502 359.649 92.7076 359.649 94.4671C359.649 96.52 359.449 96.7155 357.249 96.7155C350.849 96.7155 344.449 96.7155 337.949 96.7155C331.449 96.7155 324.949 96.6177 318.549 96.7155C316.949 96.7155 316.749 96.1289 317.049 94.8581C317.349 93.7828 317.449 92.7076 317.749 91.6323C318.049 90.6547 317.849 89.9705 316.849 89.6772C315.749 89.3839 315.249 90.0682 314.949 90.948C314.249 93.0986 313.949 95.2492 313.849 97.4975C313.749 98.9638 314.449 99.4526 315.849 99.4526C329.949 99.4526 344.049 99.4526 358.149 99.4526C360.849 99.4526 362.449 97.8885 362.549 95.2492C362.549 93.3919 362.549 91.4368 362.549 89.5794C362.549 88.6997 362.449 87.6244 363.749 87.6244C365.149 87.6244 365.049 88.6997 365.049 89.6772C365.049 91.5345 365.049 93.4896 365.049 95.3469C365.149 97.7907 366.849 99.4526 369.149 99.5503C371.549 99.5503 373.149 97.8885 373.249 95.3469C373.249 93.3918 373.249 91.4368 373.249 89.4817C373.249 88.5041 373.349 87.5266 374.549 87.5266C375.749 87.5266 375.849 88.6019 375.849 89.4817C375.849 91.339 375.849 93.2941 375.849 95.1514C375.849 97.693 377.449 99.3548 379.849 99.4526C382.249 99.5503 384.049 97.7908 384.149 95.2492C384.149 93.1963 384.149 91.1435 384.149 89.0907C384.149 88.2109 384.449 87.6244 385.249 87.5266C386.249 87.5266 386.549 88.2109 386.549 89.0907C386.549 91.0457 386.549 93.0986 386.549 95.0537C386.549 97.693 388.249 99.3548 390.649 99.4526C393.049 99.4526 394.749 97.7908 394.849 95.1514C394.849 93.2941 394.849 91.339 394.849 89.4817C394.849 88.6019 394.849 87.5266 396.149 87.5266C397.449 87.5266 397.349 88.6019 397.349 89.5794C397.349 91.4368 397.349 93.3919 397.349 95.2492C397.449 97.7908 399.049 99.4526 401.349 99.4526C403.749 99.4526 405.549 97.693 405.549 95.1514C405.549 93.1963 405.549 91.1435 405.549 89.1884C405.549 88.3087 405.749 87.5266 406.749 87.5266C407.749 87.5266 408.049 88.2109 408.049 89.1884C408.049 91.339 408.049 93.3918 408.049 95.5424C408.149 97.8885 409.849 99.5503 412.149 99.5503C414.449 99.5503 416.149 97.8885 416.249 95.5424C416.249 93.4896 416.249 91.4368 416.249 89.384C416.249 88.5042 416.449 87.6244 417.549 87.6244C418.549 87.6244 418.749 88.5042 418.749 89.2862C418.749 91.2413 418.749 93.1963 418.749 95.1514C418.749 98.084 420.249 99.5503 423.249 99.5503C426.849 99.5503 430.449 99.5503 433.949 99.5503C434.949 99.5503 436.049 99.5503 436.049 98.2795C436.149 96.8132 435.049 96.8132 433.949 96.8132Z" fill="#306AFF"/>
<path d="M322.649 85.0826C325.649 85.5713 328.649 86.4511 331.249 88.0152C332.649 88.7972 333.949 89.7748 335.149 91.3388C334.249 91.3388 333.749 91.3388 333.149 91.3388C329.549 91.3388 325.949 91.3388 322.449 91.3388C321.449 91.3388 320.349 91.5343 320.349 92.8051C320.349 94.0759 321.449 94.1737 322.449 94.1737C327.549 94.1737 332.549 94.1737 337.649 94.1737C339.649 94.1737 340.149 93.1961 339.149 91.5343C336.849 88.0152 333.749 85.5714 329.649 84.3006C327.949 83.8118 326.249 83.4208 324.349 82.932C328.449 79.8039 332.949 78.4354 337.849 78.4354C364.149 78.4354 390.349 78.4354 416.649 78.4354C417.549 78.4354 418.749 78.7286 419.149 77.5556C419.649 76.3825 418.749 75.6983 418.049 75.014C412.849 69.8331 407.649 64.7499 402.549 59.569C401.749 58.7869 400.849 58.1027 399.749 59.0802C398.749 60.0577 399.449 60.9375 400.249 61.8173C404.549 66.0207 408.749 70.3218 412.949 74.5252C413.249 74.8185 413.849 75.014 413.649 75.6983C413.049 75.6983 412.349 75.6983 411.749 75.6983C387.049 75.6983 362.349 75.6983 337.549 75.6983C331.349 75.6983 325.849 77.5556 321.249 81.6612C320.549 82.3455 319.449 82.8342 319.849 84.105C320.449 85.1803 321.649 84.9848 322.649 85.0826Z" fill="#306AFF"/>
<path d="M339.049 84.985C339.049 87.1355 340.849 88.8951 343.049 88.7973C345.249 88.7973 347.049 87.0378 346.949 84.8872C346.849 82.7366 345.049 81.0748 342.849 81.1726C340.649 81.1726 339.049 82.8344 339.049 84.985ZM344.449 84.985C344.249 85.8647 343.849 86.4513 342.849 86.4513C341.949 86.4513 341.349 85.8647 341.449 84.8872C341.449 84.0074 342.049 83.5187 342.849 83.5187C343.849 83.5187 344.349 84.2029 344.449 84.985Z" fill="#306AFF"/>
<path d="M434.85 86.549C433.85 86.549 433.35 87.1355 433.35 88.0152C433.35 88.895 433.95 89.3838 434.95 89.4815C435.85 89.286 436.35 88.8951 436.35 87.9175C436.25 87.0377 435.75 86.4512 434.85 86.549Z" fill="#306AFF"/>
<path d="M274.248 261.723H282.348C284.248 261.723 285.748 261.821 286.748 262.114C287.748 262.407 288.548 262.798 288.948 263.385C289.348 263.971 289.548 264.754 289.548 265.829V268.273C289.548 268.859 289.348 269.348 288.848 269.837C288.448 270.325 287.848 270.619 287.248 270.814V271.01C288.048 271.107 288.748 271.401 289.348 271.987C289.948 272.574 290.348 273.16 290.348 273.942V276.973C290.348 278.537 289.748 279.71 288.448 280.296C287.148 280.883 285.148 281.274 282.448 281.274H274.148V261.723H274.248ZM282.348 269.641C283.148 269.641 283.648 269.543 284.048 269.446C284.448 269.348 284.648 269.152 284.848 268.859C285.048 268.566 285.048 268.175 285.048 267.686V266.709C285.048 266.22 284.948 265.927 284.848 265.633C284.748 265.34 284.448 265.242 284.048 265.145C283.648 265.047 283.048 264.949 282.248 264.949H279.048V269.543H282.348V269.641ZM282.448 277.852C283.648 277.852 284.448 277.755 284.948 277.461C285.448 277.168 285.648 276.777 285.648 276.191V274.627C285.648 273.942 285.448 273.356 285.048 273.063C284.648 272.769 284.048 272.574 283.048 272.574H278.948V277.755H282.448V277.852Z" fill="white"/>
<path d="M301.348 261.723H307.148L314.348 281.176H309.448L307.648 275.995H300.348L298.548 281.176H293.848L301.348 261.723ZM306.648 272.965L304.148 265.633H304.048L301.548 272.965H306.648Z" fill="white"/>
<path d="M318.848 261.723H327.848C330.548 261.723 332.448 262.016 333.648 262.701C334.848 263.287 335.448 264.363 335.448 265.829V269.25C335.448 270.423 335.048 271.303 334.248 271.89C333.448 272.476 332.348 272.965 330.948 273.16L336.748 281.176H331.148L325.948 273.551H323.748V281.176H318.948V261.723H318.848ZM327.748 270.423C328.848 270.423 329.648 270.325 330.048 270.032C330.448 269.739 330.648 269.152 330.648 268.37V267.002C330.648 266.318 330.448 265.829 329.948 265.536C329.448 265.242 328.748 265.145 327.648 265.145H323.548V270.521H327.748V270.423Z" fill="white"/>
<path d="M341.649 261.723H349.749C351.649 261.723 353.149 261.821 354.149 262.114C355.149 262.407 355.949 262.798 356.349 263.385C356.749 263.971 356.949 264.754 356.949 265.829V268.273C356.949 268.859 356.749 269.348 356.249 269.837C355.849 270.325 355.249 270.619 354.649 270.814V271.01C355.449 271.107 356.149 271.401 356.749 271.987C357.349 272.574 357.749 273.16 357.749 273.942V276.973C357.749 278.537 357.149 279.71 355.849 280.296C354.549 280.883 352.549 281.274 349.849 281.274H341.549V261.723H341.649ZM349.749 269.641C350.549 269.641 351.049 269.543 351.449 269.446C351.849 269.348 352.049 269.152 352.249 268.859C352.449 268.566 352.449 268.175 352.449 267.686V266.709C352.449 266.22 352.349 265.927 352.249 265.633C352.149 265.34 351.849 265.242 351.449 265.145C351.049 265.047 350.449 264.949 349.649 264.949H346.449V269.543H349.749V269.641ZM349.849 277.852C351.049 277.852 351.849 277.755 352.349 277.461C352.849 277.168 353.049 276.777 353.049 276.191V274.627C353.049 273.942 352.849 273.356 352.449 273.063C352.049 272.769 351.449 272.574 350.449 272.574H346.349V277.755H349.849V277.852Z" fill="white"/>
<path d="M363.549 261.723H378.749V265.047H368.349V269.543H377.749V272.867H368.349V277.852H379.049V281.176H363.549V261.723Z" fill="white"/>
<path d="M384.549 261.723H393.549C396.249 261.723 398.149 262.016 399.349 262.701C400.549 263.287 401.149 264.363 401.149 265.829V269.25C401.149 270.423 400.749 271.303 399.949 271.89C399.149 272.574 398.049 272.965 396.649 273.16L402.449 281.176H396.949L391.749 273.551H389.549V281.176H384.749V261.723H384.549ZM393.449 270.423C394.549 270.423 395.349 270.325 395.749 270.032C396.149 269.739 396.349 269.152 396.349 268.37V267.002C396.349 266.318 396.149 265.829 395.649 265.536C395.249 265.242 394.449 265.145 393.349 265.145H389.249V270.521H393.449V270.423Z" fill="white"/>
<path d="M416.149 280.981V277.364C419.649 277.853 422.049 278.146 423.249 278.146C425.949 278.146 427.249 277.462 427.249 276.093V274.822C427.249 274.138 427.049 273.649 426.649 273.356C426.249 273.063 425.549 272.867 424.649 272.867H422.349C417.949 272.867 415.749 271.205 415.749 267.784V266.318C415.749 264.656 416.449 263.385 417.949 262.603C419.449 261.821 421.749 261.43 424.849 261.43C426.449 261.43 428.549 261.528 431.049 261.821V265.34C427.949 264.949 425.849 264.754 424.649 264.754C423.049 264.754 421.949 264.851 421.349 265.145C420.749 265.438 420.449 265.829 420.449 266.513V267.882C420.449 268.859 421.349 269.446 423.049 269.446H425.449C427.749 269.446 429.349 269.837 430.349 270.717C431.349 271.499 431.849 272.769 431.849 274.431V275.702C431.849 278.048 431.049 279.612 429.349 280.394C428.549 280.785 427.649 281.078 426.649 281.274C425.649 281.469 424.449 281.567 423.049 281.567C421.249 281.469 418.949 281.372 416.149 280.981Z" fill="white"/>
<path d="M437.648 261.723H442.448V269.543H450.948V261.723H455.748V281.176H450.948V272.867H442.448V281.176H437.648V261.723Z" fill="white"/>
<path d="M468.249 281.274C467.349 281.176 466.349 280.883 465.349 280.589C464.249 280.198 463.449 279.612 462.849 278.83C462.249 278.048 461.949 277.07 461.949 275.897V267.393C461.949 266.415 462.149 265.535 462.649 264.851C463.049 264.069 463.649 263.482 464.349 263.091C464.949 262.7 465.749 262.407 466.649 262.114C467.549 261.821 468.349 261.723 469.149 261.625C469.849 261.527 470.649 261.527 471.449 261.527C472.349 261.527 473.249 261.527 473.949 261.625C474.649 261.723 475.449 261.821 476.249 262.016C477.249 262.309 478.049 262.603 478.649 262.994C479.249 263.385 479.849 263.971 480.249 264.655C480.749 265.437 480.949 266.317 480.949 267.295V275.799C480.949 276.875 480.649 277.852 480.049 278.634C479.449 279.416 478.649 280.003 477.649 280.394C475.849 281.078 473.749 281.469 471.449 281.469C470.149 281.469 469.149 281.469 468.249 281.274ZM473.049 278.145C473.549 278.048 473.949 278.048 474.449 277.852C474.949 277.754 475.349 277.461 475.549 277.168C475.749 276.875 475.949 276.386 475.949 275.897V267.295C475.949 266.415 475.549 265.731 474.849 265.34C474.049 264.949 472.949 264.753 471.349 264.753C469.749 264.753 468.549 264.949 467.849 265.34C467.149 265.731 466.749 266.415 466.749 267.295V275.897C466.749 276.386 466.849 276.777 467.149 277.168C467.449 277.559 467.849 277.754 468.349 277.852C468.849 277.95 469.349 278.048 469.749 278.145C470.149 278.243 470.749 278.243 471.449 278.243C472.149 278.243 472.649 278.145 473.049 278.145Z" fill="white"/>
<path d="M486.949 261.723H494.949C496.849 261.723 498.449 261.821 499.549 262.114C500.649 262.407 501.549 262.798 502.049 263.483C502.549 264.167 502.849 265.047 502.849 266.22V269.934C502.849 271.205 502.549 272.183 502.049 272.965C501.449 273.649 500.549 274.236 499.349 274.529C498.149 274.822 496.449 275.018 494.449 275.018H491.849V281.372H487.049V261.723H486.949ZM494.849 271.694C496.049 271.694 496.949 271.596 497.449 271.303C497.949 271.01 498.249 270.521 498.249 269.837V266.611C498.249 265.927 498.049 265.536 497.549 265.34C497.049 265.145 496.149 265.047 494.849 265.047H491.849V271.694H494.849Z" fill="white"/>
<path d="M249.248 267.392C247.648 267.392 246.048 266.903 244.848 266.024L240.948 263.189C240.948 263.189 240.848 263.189 240.848 263.091C239.348 262.114 237.648 261.625 235.948 261.625C234.248 261.625 232.448 262.114 231.048 263.091C231.048 263.091 230.948 263.091 230.948 263.189L227.048 266.024C224.548 267.783 220.748 267.783 218.148 266.024L214.348 263.189C214.348 263.189 214.248 263.189 214.248 263.091C211.348 261.136 207.348 261.136 204.348 263.091C204.348 263.091 204.248 263.091 204.248 263.189L200.348 266.024C199.148 266.903 197.548 267.294 195.948 267.392C194.748 267.392 193.648 268.37 193.648 269.641C193.648 270.911 194.648 271.889 195.948 271.889H196.048C198.648 271.889 201.148 271.107 203.148 269.641L206.948 266.806C208.248 265.926 210.248 265.926 211.548 266.806L215.348 269.641C219.548 272.573 225.448 272.573 229.648 269.641L233.548 266.806C234.848 265.926 236.848 265.926 238.148 266.806L241.948 269.641C243.948 271.107 246.448 271.889 249.048 271.889H249.148C250.448 271.889 251.448 270.814 251.448 269.641C251.548 268.37 250.548 267.392 249.248 267.392Z" fill="#306AFF"/>
<path d="M249.248 279.026C247.648 279.026 246.048 278.537 244.848 277.657L240.948 274.822C240.948 274.822 240.848 274.822 240.848 274.724C239.348 273.747 237.648 273.258 235.948 273.258C234.248 273.258 232.448 273.747 231.048 274.724C231.048 274.724 230.948 274.724 230.948 274.822L227.048 277.657C224.548 279.417 220.748 279.417 218.148 277.657L214.348 274.822C214.348 274.822 214.248 274.822 214.248 274.724C211.348 272.769 207.348 272.769 204.348 274.724C204.348 274.724 204.248 274.724 204.248 274.822L200.448 277.657C199.248 278.537 197.648 278.928 196.048 279.026C194.848 279.026 193.748 280.003 193.748 281.274C193.748 282.545 194.748 283.522 196.048 283.522H196.148C198.748 283.522 201.248 282.74 203.248 281.274L207.048 278.439C208.348 277.559 210.348 277.559 211.648 278.439L215.448 281.274C219.648 284.206 225.548 284.206 229.748 281.274L233.648 278.439C234.948 277.559 236.948 277.559 238.248 278.439L242.048 281.274C244.048 282.74 246.548 283.522 249.148 283.522H249.248C250.548 283.522 251.548 282.447 251.548 281.274C251.548 280.003 250.548 279.026 249.248 279.026Z" fill="#306AFF"/>
<path d="M580.248 267.392C578.648 267.392 577.048 266.903 575.848 266.024L571.948 263.189C571.948 263.189 571.848 263.189 571.848 263.091C570.348 262.114 568.648 261.625 566.948 261.625C565.248 261.625 563.448 262.114 562.048 263.091C562.048 263.091 561.948 263.091 561.948 263.189L558.048 266.024C555.548 267.783 551.748 267.783 549.148 266.024L545.348 263.189C545.348 263.189 545.248 263.189 545.248 263.091C542.348 261.136 538.348 261.136 535.348 263.091C535.348 263.091 535.248 263.091 535.248 263.189L531.348 266.024C530.148 266.903 528.548 267.294 526.948 267.392C525.748 267.392 524.648 268.37 524.648 269.641C524.648 270.911 525.648 271.889 526.948 271.889H527.048C529.648 271.889 532.148 271.107 534.148 269.641L537.948 266.806C539.248 265.926 541.248 265.926 542.548 266.806L546.348 269.641C550.548 272.573 556.448 272.573 560.648 269.641L564.548 266.806C565.848 265.926 567.848 265.926 569.148 266.806L572.948 269.641C574.948 271.107 577.448 271.889 580.048 271.889H580.148C581.448 271.889 582.448 270.814 582.448 269.641C582.548 268.37 581.548 267.392 580.248 267.392Z" fill="#306AFF"/>
<path d="M580.248 279.026C578.648 279.026 577.048 278.537 575.848 277.657L571.948 274.822C571.948 274.822 571.848 274.822 571.848 274.724C570.348 273.747 568.648 273.258 566.948 273.258C565.248 273.258 563.448 273.747 562.048 274.724C562.048 274.724 561.948 274.724 561.948 274.822L558.048 277.657C555.548 279.417 551.748 279.417 549.148 277.657L545.348 274.822C545.348 274.822 545.248 274.822 545.248 274.724C542.348 272.769 538.348 272.769 535.348 274.724C535.348 274.724 535.248 274.724 535.248 274.822L531.448 277.657C530.248 278.537 528.648 278.928 527.048 279.026C525.848 279.026 524.748 280.003 524.748 281.274C524.748 282.545 525.748 283.522 527.048 283.522H527.148C529.748 283.522 532.248 282.74 534.248 281.274L538.048 278.439C539.348 277.559 541.348 277.559 542.648 278.439L546.448 281.274C550.648 284.206 556.548 284.206 560.748 281.274L564.648 278.439C565.948 277.559 567.948 277.559 569.248 278.439L573.048 281.274C575.048 282.74 577.548 283.522 580.148 283.522H580.248C581.548 283.522 582.548 282.447 582.548 281.274C582.548 280.003 581.548 279.026 580.248 279.026Z" fill="#306AFF"/>
<path d="M85.0488 190.363C80.0488 185.573 74.1488 182.347 67.4489 180.685C60.7489 179.024 53.8489 179.219 46.8489 181.272C40.8489 183.032 35.6489 185.866 31.4489 189.777C28.2489 192.709 25.7489 196.033 23.8489 199.747L13.4489 165.436C12.8489 163.579 11.7489 162.21 10.1489 161.33C8.54886 160.45 6.74886 160.353 4.84886 160.841C2.94886 161.428 1.54887 162.503 0.748872 164.067C-0.0511274 165.631 -0.251136 167.391 0.348863 169.248L9.14886 198.281C9.14886 198.672 9.24887 199.161 9.44887 199.65L18.7489 230.246C20.8489 237.285 24.5489 243.248 29.6489 247.94C34.7489 252.73 40.8489 255.956 47.6489 257.52C50.6489 258.204 53.6489 258.595 56.6488 258.595C60.6488 258.595 64.6489 258.008 68.7489 256.835C75.9489 254.783 81.9488 251.166 86.8488 246.18C91.6488 241.195 94.9488 235.232 96.5488 228.585C98.1488 221.84 97.9488 214.899 95.7488 207.959C93.6488 201.018 90.0488 195.153 85.0488 190.363ZM83.5488 225.945C82.5488 230.442 80.3488 234.45 77.1488 237.871C73.9488 241.293 69.8488 243.639 65.1488 245.007C60.3489 246.376 55.6489 246.474 51.1489 245.398C46.6489 244.225 42.5489 242.075 39.1489 238.751C35.7489 235.525 33.2489 231.42 31.7489 226.532C31.3489 225.261 31.0489 224.284 30.9489 223.599C30.9489 223.306 30.9489 223.013 30.8489 222.622C29.7489 215.974 30.9489 209.914 34.3489 204.44C37.7489 198.965 42.8489 195.251 49.4489 193.393C54.2489 192.025 58.9488 191.829 63.5488 192.905C68.1488 193.98 72.1488 196.13 75.5488 199.454C78.9488 202.68 81.4488 206.786 82.9488 211.673C84.3488 216.659 84.5488 221.449 83.5488 225.945Z" fill="white"/>
<path d="M189.648 190.168C188.248 183.032 185.248 176.678 180.648 171.497C176.048 166.218 170.348 162.406 163.748 160.157C157.148 157.909 150.048 157.518 142.648 158.886C135.348 160.255 128.948 163.188 123.548 167.684C118.248 172.181 114.348 177.753 112.048 184.302C109.748 190.852 109.348 197.792 110.748 204.928C112.148 212.064 115.148 218.321 119.648 223.599C124.148 228.78 129.648 232.593 136.148 234.939C140.248 236.405 144.448 237.089 148.848 237.089C151.448 237.089 154.048 236.796 156.648 236.307C162.748 235.134 168.248 232.788 172.848 229.269C176.348 226.63 179.148 223.599 181.448 220.08L182.248 224.088C182.648 226.043 183.548 227.509 185.148 228.389C186.648 229.367 188.448 229.66 190.348 229.269C192.248 228.878 193.848 227.998 194.848 226.434C195.848 224.968 196.248 223.306 195.848 221.449L189.648 190.168ZM175.548 206.786C174.048 211.185 171.548 214.899 168.048 217.93C164.548 220.96 160.248 222.915 155.348 223.795C150.448 224.675 145.748 224.381 141.248 222.915C136.848 221.351 133.048 218.809 129.948 215.29C126.848 211.771 124.848 207.372 123.848 202.387C122.848 197.401 123.148 192.611 124.648 188.212C126.148 183.814 128.648 180.001 132.248 176.971C135.748 173.94 140.048 171.888 144.948 171.008C146.748 170.715 148.548 170.519 150.248 170.519C153.248 170.519 156.148 171.008 158.948 171.985C163.348 173.549 167.148 176.189 170.148 179.708C173.248 183.325 175.248 187.626 176.248 192.611C177.248 197.597 177.048 202.387 175.548 206.786Z" fill="white"/>
<path d="M249.15 145.005C246.55 144.223 243.25 144.028 239.15 144.516C234.15 145.103 229.55 146.765 225.45 149.404C222.55 151.261 220.15 153.608 218.15 156.247L217.95 154.487C217.75 152.435 216.85 150.968 215.55 149.893C214.15 148.818 212.45 148.427 210.45 148.72C208.35 148.915 206.85 149.795 205.75 151.066C204.65 152.337 204.25 154.096 204.55 156.051L212.35 219.591C212.55 221.644 213.45 223.11 214.75 224.186C215.85 225.065 217.15 225.456 218.75 225.456C219.15 225.456 219.45 225.456 219.85 225.359C221.95 225.163 223.45 224.283 224.55 223.013C225.65 221.644 226.05 219.982 225.75 218.027L220.75 177.655C220.05 172.278 221.55 167.88 225.15 164.067C228.85 160.255 233.95 157.909 240.45 157.127C241.85 156.931 242.85 156.931 243.65 156.833C245.75 156.736 247.25 156.736 248.15 156.638C249.85 156.442 251.05 155.954 252.05 155.269C253.05 154.487 253.75 153.217 254.05 151.653C254.15 151.164 254.15 150.675 254.05 149.991C253.85 148.427 252.85 146.178 249.15 145.005Z" fill="white"/>
<path d="M315.35 140.215C312.85 139.336 309.45 138.945 305.35 139.238C300.35 139.531 295.65 140.997 291.45 143.441C288.45 145.201 285.95 147.351 283.75 149.991L283.65 148.133C283.55 146.081 282.75 144.517 281.45 143.441C280.15 142.366 278.45 141.877 276.35 141.975C274.25 142.073 272.65 142.855 271.55 144.126C270.45 145.396 269.95 147.058 270.05 149.111L274.55 213.042C274.65 215.095 275.45 216.659 276.75 217.734C277.85 218.711 279.35 219.2 281.15 219.2C281.35 219.2 281.55 219.2 281.85 219.2C283.95 219.102 285.55 218.32 286.65 217.05C287.75 215.779 288.25 214.117 288.15 212.064L285.35 171.497C284.95 166.12 286.65 161.721 290.45 158.104C294.35 154.487 299.55 152.435 306.15 151.946C307.55 151.848 308.65 151.848 309.35 151.848C311.45 151.848 312.95 151.848 313.85 151.848C315.55 151.75 316.85 151.359 317.85 150.675C318.95 149.991 319.65 148.72 320.05 147.156C320.15 146.765 320.15 146.178 320.15 145.494C319.85 143.832 318.95 141.584 315.35 140.215Z" fill="white"/>
<path d="M401.849 156.345C398.249 150.382 393.349 145.69 387.249 142.268C381.149 138.945 374.249 137.283 366.749 137.381C359.249 137.478 352.449 139.336 346.349 142.757C340.249 146.276 335.449 151.066 332.049 157.127C328.649 163.187 326.949 169.932 327.049 177.264C327.149 184.595 328.949 191.243 332.449 197.108C335.949 203.071 340.749 207.763 346.649 211.087C352.449 214.313 358.949 215.974 366.049 215.974C366.249 215.974 366.449 215.974 366.549 215.974C372.749 215.877 378.549 214.508 383.749 211.869C387.649 209.914 391.049 207.372 393.849 204.244L393.949 208.35C393.949 210.305 394.649 211.869 396.049 213.14C397.349 214.313 399.049 214.899 401.049 214.899C403.049 214.899 404.649 214.215 405.949 212.944C407.249 211.673 407.849 210.011 407.849 208.252L407.449 176.286C407.349 169.053 405.449 162.308 401.849 156.345ZM367.249 149.893C372.049 149.893 376.549 151.066 380.449 153.217C384.449 155.563 387.749 158.691 390.149 162.796C392.549 166.804 393.749 171.497 393.849 176.482C393.949 181.565 392.749 186.16 390.549 190.265C388.249 194.371 385.149 197.597 381.149 199.943C377.149 202.289 372.649 203.56 367.649 203.56C362.649 203.657 358.049 202.484 353.949 200.236C349.849 197.988 346.549 194.762 344.249 190.754C341.849 186.746 340.649 182.152 340.549 177.069C340.449 171.985 341.649 167.391 343.849 163.285C346.149 159.18 349.349 155.954 353.349 153.51C357.349 151.164 361.949 149.893 366.949 149.795C367.049 149.893 367.149 149.893 367.249 149.893Z" fill="white"/>
<path d="M462.349 139.531C455.149 139.14 448.549 140.509 442.549 143.539C436.549 146.569 431.749 151.066 428.149 156.931C424.549 162.699 422.549 169.346 422.149 176.873C421.749 184.107 423.049 190.949 426.149 197.108C429.249 203.266 433.649 208.252 439.449 211.966C445.249 215.681 451.949 217.832 459.349 218.223C460.249 218.223 461.149 218.32 462.049 218.32C471.449 218.32 479.549 215.583 486.149 210.207C487.449 209.229 488.149 207.861 488.249 206.199C488.349 204.439 487.649 202.778 486.049 201.214C484.949 200.236 483.549 199.65 482.149 199.552C480.549 199.454 478.849 200.041 477.349 201.116C472.949 204.537 467.149 206.101 460.149 205.71C455.049 205.417 450.549 204.048 446.849 201.507C443.049 198.965 440.149 195.642 438.249 191.438C436.249 187.235 435.449 182.543 435.749 177.459C436.049 172.279 437.349 167.586 439.649 163.578C441.949 159.571 445.049 156.54 448.849 154.487C452.649 152.435 457.049 151.555 461.849 151.75C465.649 151.946 469.149 152.826 472.249 154.39C475.349 155.954 478.149 158.3 480.549 161.232C482.049 162.992 483.749 163.872 485.549 163.97C486.749 164.067 487.949 163.774 489.149 163.09C491.249 161.819 492.349 160.157 492.449 158.3C492.549 156.834 492.149 155.563 491.149 154.39C483.949 145.201 474.349 140.118 462.349 139.531Z" fill="white"/>
<path d="M584.149 153.999C583.049 152.63 581.449 151.848 579.449 151.555C577.449 151.359 575.749 151.75 574.349 152.826C572.949 153.901 572.149 155.367 571.849 157.322L566.649 197.206C566.249 200.529 564.849 203.56 562.549 206.101C560.249 208.643 557.249 210.5 553.649 211.673C550.049 212.846 546.049 213.237 541.749 212.651C534.849 211.771 529.449 209.132 525.649 204.733C521.949 200.334 520.549 194.273 521.549 186.746L526.049 151.653C526.249 149.795 525.849 148.133 524.649 146.765C523.549 145.299 521.949 144.517 519.949 144.223C518.049 144.028 516.349 144.419 514.949 145.592C513.449 146.667 512.649 148.231 512.349 149.991L507.849 185.084C506.849 192.514 507.649 199.161 509.949 204.928C512.349 210.696 516.049 215.388 521.149 218.907C526.149 222.328 532.149 224.577 538.849 225.359C544.049 226.043 549.149 225.652 553.949 224.186C557.449 223.11 560.749 221.644 563.649 219.689L563.549 220.764C563.349 222.719 563.749 224.381 564.749 225.75C565.849 227.216 567.349 227.998 569.349 228.291C569.749 228.291 570.049 228.389 570.349 228.389C571.849 228.389 573.249 227.9 574.449 227.021C575.949 225.945 576.749 224.381 577.049 222.426L585.249 158.984C585.749 157.127 585.249 155.465 584.149 153.999Z" fill="white"/>
<path d="M687.349 139.824C685.449 139.433 683.649 139.727 682.049 140.704C680.449 141.682 679.449 143.148 679.049 145.005L671.349 180.001C669.149 176.482 666.349 173.256 662.949 170.617C658.449 167 653.049 164.556 646.949 163.285C639.849 161.819 632.949 162.112 626.349 164.263C619.849 166.413 614.149 170.03 609.549 175.211C604.949 180.294 601.849 186.551 600.249 193.687C598.649 200.823 598.949 207.763 601.049 214.312C603.149 220.862 606.949 226.532 612.149 231.224C617.349 235.818 623.749 238.946 631.049 240.51C634.149 241.195 637.149 241.488 640.149 241.488C644.249 241.488 648.249 240.901 652.049 239.631C658.749 237.578 664.549 233.863 669.249 228.682C673.949 223.501 677.149 217.343 678.749 210.207L685.649 178.926C685.749 178.339 685.849 177.948 685.849 177.459L692.349 147.84C692.749 145.983 692.449 144.223 691.549 142.757C690.749 141.193 689.249 140.215 687.349 139.824ZM666.249 204.342C666.149 204.83 666.049 205.808 665.749 207.372C664.649 212.357 662.549 216.659 659.349 220.08C656.249 223.599 652.349 226.043 647.949 227.509C643.549 228.976 638.849 229.171 633.949 228.194C629.049 227.118 624.849 225.065 621.349 221.937C617.849 218.809 615.449 214.997 614.049 210.5C612.649 206.003 612.549 201.311 613.549 196.326C614.649 191.34 616.749 187.039 619.949 183.618C623.049 180.099 626.949 177.655 631.349 176.189C633.949 175.407 636.649 174.918 639.349 174.918C641.349 174.918 643.349 175.113 645.449 175.602C652.249 177.068 657.549 180.392 661.349 185.573C665.149 190.754 666.749 196.717 666.249 203.364C666.149 203.657 666.149 203.951 666.249 204.342Z" fill="white"/>
<path d="M775.449 218.809C774.049 212.064 770.949 206.004 766.249 200.92C761.549 195.837 755.549 192.025 748.449 189.777C741.349 187.528 734.249 187.039 727.349 188.408C720.449 189.777 714.35 192.905 709.05 197.499C703.85 202.093 699.949 207.959 697.649 214.899C695.349 221.84 694.849 228.78 696.149 235.427C697.449 242.172 700.449 248.038 704.949 253.121C709.449 258.204 715.249 261.919 722.149 264.069C728.049 266.024 734.049 266.513 739.749 265.633C744.049 264.949 748.149 263.678 751.849 261.625L750.549 265.536C749.949 267.393 750.049 269.152 750.949 270.716C751.749 272.281 753.149 273.356 755.049 273.942C755.849 274.236 756.649 274.333 757.349 274.333C758.349 274.333 759.349 274.138 760.349 273.649C761.949 272.867 763.149 271.498 763.749 269.739L773.949 239.435C776.349 232.495 776.849 225.554 775.449 218.809ZM744.549 201.605C749.249 203.169 753.249 205.613 756.249 209.132C759.349 212.553 761.349 216.659 762.249 221.253C763.149 225.848 762.749 230.54 761.149 235.427C759.549 240.217 756.949 244.323 753.449 247.451C749.949 250.579 745.849 252.632 741.349 253.61C736.849 254.587 732.049 254.294 727.349 252.73C722.649 251.166 718.649 248.722 715.55 245.301C712.45 241.879 710.349 237.871 709.449 233.277C708.549 228.682 708.95 223.99 710.55 219.103C712.15 214.313 714.749 210.207 718.249 207.079C721.749 203.951 725.849 201.8 730.449 200.823C732.249 200.432 734.049 200.236 735.949 200.236C738.749 200.138 741.649 200.627 744.549 201.605Z" fill="white"/>
</svg>
